<svg version="1.1" xmlns="http://www.w3.org/2000/svg" viewBox="0 0 727.3372932318796 427.66994236966923" width="727.3372932318796" height="427.66994236966923" class="excalidraw-svg">
  <!-- svg-source:excalidraw -->
  
  <defs>
    <style class="style-fonts">
      
    </style>
    
  </defs>
  <rect x="0" y="0" width="727.3372932318796" height="427.66994236966923" fill="#1e1e1e"></rect><g transform="translate(353.3094641156265 154.33000825643694) rotate(0 4.639288444580757 -1.1298805002593326)" stroke="none"><path d="M-1.39 -0.65 C-1.42 0.11, -1.69 3.08, -1.2 3.93 C-0.72 4.77, 0.62 4.43, 1.53 4.43 C2.45 4.42, 3.33 4.51, 4.29 3.9 C5.25 3.29, 6.45 1.41, 7.3 0.78 C8.14 0.15, 9.43 1.35, 9.37 0.12 C9.31 -1.11, 7.21 -5.61, 6.96 -6.6 C6.71 -7.59, 8.73 -6.32, 7.86 -5.82 C6.99 -5.32, 2.72 -4.56, 1.73 -3.62 C0.74 -2.68, 1.13 -0.85, 1.92 -0.19 C2.71 0.47, 5.14 0.55, 6.47 0.34 C7.81 0.13, 9.43 -0.22, 9.92 -1.44 C10.42 -2.67, 10.11 -5.98, 9.43 -7.03 C8.76 -8.07, 6.71 -7.9, 5.89 -7.72 C5.06 -7.53, 5.06 -6.93, 4.47 -5.91 C3.89 -4.89, 2.23 -2.16, 2.38 -1.62 C2.52 -1.09, 5.31 -2.13, 5.34 -2.69 C5.36 -3.24, 3.06 -4.52, 2.55 -4.94" stroke="none" stroke-width="0" fill="#1e1e1e" fill-rule="evenodd"></path><path fill="#ffffff" d="M 2.07,-0.98 Q 2.07,-0.98 2.96,-0.04 3.86,0.89 4.40,-0.31 4.95,-1.53 5.19,-2.65 5.43,-3.77 5.91,-2.54 6.39,-1.31 6.09,-2.39 5.78,-3.47 5.81,-2.20 5.84,-0.94 3.45,-2.21 1.05,-3.48 1.23,-4.23 1.40,-4.97 1.53,-5.06 1.67,-5.14 1.81,-5.20 1.96,-5.25 2.12,-5.26 2.28,-5.28 2.44,-5.25 2.59,-5.23 2.74,-5.17 2.89,-5.11 3.01,-5.02 3.14,-4.92 3.24,-4.80 3.34,-4.68 3.41,-4.54 3.48,-4.39 3.52,-4.24 3.55,-4.09 3.55,-3.93 3.54,-3.77 3.50,-3.62 3.46,-3.46 3.38,-3.33 3.30,-3.19 3.19,-3.07 3.08,-2.96 2.29,-2.92 1.50,-2.88 1.35,-3.03 1.19,-3.17 1.10,-3.36 1.00,-3.55 0.96,-3.76 0.93,-3.97 0.96,-4.18 1.00,-4.39 1.10,-4.57 1.20,-4.76 1.35,-4.91 1.51,-5.05 1.70,-5.14 1.89,-5.23 2.11,-5.25 2.32,-5.28 2.52,-5.23 2.73,-5.18 2.91,-5.07 3.09,-4.96 3.23,-4.80 3.37,-4.64 3.45,-4.44 3.53,-4.24 3.54,-4.03 3.55,-3.82 3.49,-3.61 3.43,-3.41 3.31,-3.23 3.19,-3.06 3.02,-2.93 2.85,-2.80 2.65,-2.74 2.45,-2.67 2.24,-2.67 2.03,-2.67 1.83,-2.74 1.62,-2.81 1.46,-2.93 1.29,-3.06 1.17,-3.24 1.05,-3.42 0.99,-3.62 0.94,-3.83 0.95,-4.04 0.96,-4.25 1.04,-4.45 1.12,-4.64 1.26,-4.81 1.39,-4.97 1.58,-5.08 1.76,-5.19 1.97,-5.23 2.17,-5.28 2.39,-5.25 2.60,-5.23 2.00,-5.10 1.40,-4.97 1.53,-5.06 1.67,-5.14 1.81,-5.20 1.96,-5.25 2.12,-5.26 2.28,-5.28 2.44,-5.25 2.59,-5.23 2.74,-5.17 2.89,-5.11 3.01,-5.02 3.14,-4.92 3.24,-4.80 3.34,-4.68 3.41,-4.54 3.48,-4.40 3.52,-4.24 3.55,-4.09 3.55,-3.93 3.54,-3.77 3.50,-3.62 3.46,-3.46 3.38,-3.33 3.30,-3.19 3.19,-3.07 3.08,-2.96 3.91,-0.45 4.74,2.04 2.01,0.81 -0.71,-0.40 -0.65,-2.22 -0.59,-4.04 0.10,-5.27 0.80,-6.49 2.19,-7.74 3.59,-8.99 5.45,-9.32 7.30,-9.66 9.01,-8.77 10.72,-7.88 11.48,-6.13 12.25,-4.37 11.95,-2.65 11.66,-0.92 10.62,0.46 9.58,1.86 7.96,2.60 6.33,3.35 4.60,3.15 2.87,2.95 1.67,1.71 0.47,0.46 0.33,-1.63 0.18,-3.73 0.98,-5.01 1.78,-6.29 3.31,-7.37 4.84,-8.44 6.65,-8.39 8.47,-8.34 10.02,-6.76 11.57,-5.17 11.61,-3.18 11.66,-1.19 10.89,0.68 10.13,2.55 8.52,4.19 6.92,5.82 4.76,6.24 2.59,6.66 0.62,5.52 -1.35,4.39 -1.71,2.68 -2.07,0.98 -2.15,0.71 -2.24,0.45 -2.26,0.18 -2.28,-0.09 -2.24,-0.36 -2.20,-0.63 -2.09,-0.89 -1.98,-1.14 -1.81,-1.36 -1.65,-1.58 -1.43,-1.76 -1.22,-1.93 -0.97,-2.05 -0.72,-2.17 -0.45,-2.22 -0.18,-2.28 0.09,-2.27 0.36,-2.26 0.63,-2.18 0.89,-2.10 1.13,-1.96 1.37,-1.83 1.57,-1.63 1.77,-1.44 1.92,-1.21 2.07,-0.98 2.07,-0.98 L 2.07,-0.98 Z"></path></g><g transform="translate(308.6936646363972 138.51654725509843) rotate(0 -1.613629147607071 12.50541660353349)" stroke="none"><path fill="#ffffff" d="M 2.11,0.33 Q 2.11,0.33 2.29,2.78 2.46,5.23 2.18,7.61 1.91,10.00 1.67,12.18 1.42,14.37 1.30,16.27 1.18,18.18 1.10,19.81 1.02,21.43 -0.41,22.08 -1.85,22.73 -1.88,22.89 -1.91,23.04 -1.97,23.19 -2.03,23.33 -2.13,23.46 -2.23,23.59 -2.35,23.69 -2.47,23.78 -2.62,23.85 -2.76,23.92 -2.91,23.95 -3.07,23.98 -3.23,23.97 -3.39,23.96 -3.54,23.92 -3.69,23.87 -3.83,23.79 -3.96,23.71 -4.08,23.60 -4.19,23.49 -4.27,23.36 -4.36,23.22 -4.40,23.07 -4.45,22.92 -4.47,22.76 -4.48,22.61 -4.47,22.54 -4.46,22.47 -4.40,22.27 -4.33,22.07 -4.21,21.90 -4.08,21.73 -3.91,21.60 -3.73,21.48 -3.53,21.42 -3.32,21.36 -3.11,21.37 -2.90,21.38 -2.70,21.46 -2.50,21.54 -2.34,21.67 -2.17,21.81 -2.06,21.99 -1.95,22.17 -1.90,22.37 -1.85,22.58 -1.87,22.79 -1.90,23.00 -1.98,23.20 -2.07,23.39 -2.21,23.55 -2.36,23.70 -2.54,23.81 -2.73,23.91 -2.94,23.95 -3.15,23.98 -3.36,23.95 -3.57,23.92 -3.76,23.82 -3.95,23.72 -4.10,23.57 -4.24,23.42 -4.33,23.23 -4.43,23.04 -4.45,22.82 -4.48,22.61 -4.43,22.41 -4.39,22.20 -4.28,22.01 -4.18,21.83 -4.02,21.69 -3.86,21.55 -3.66,21.47 -3.46,21.39 -3.25,21.38 -3.04,21.36 -2.83,21.42 -2.63,21.47 -2.45,21.59 -2.27,21.70 -2.14,21.87 -2.01,22.04 -1.94,22.24 -1.87,22.44 -1.86,22.59 -1.85,22.73 -1.88,22.89 -1.91,23.04 -1.97,23.19 -2.03,23.33 -2.13,23.46 -2.23,23.59 -2.35,23.69 -2.47,23.78 -2.62,23.85 -2.76,23.92 -2.91,23.95 -3.07,23.98 -3.23,23.97 -3.39,23.96 -3.54,23.92 -3.69,23.87 -3.83,23.79 -3.96,23.71 -4.08,23.60 -4.19,23.49 -4.27,23.36 -4.36,23.22 -4.40,23.07 -4.45,22.92 -4.47,22.76 -4.48,22.61 -5.13,21.85 -5.78,21.10 -5.70,19.41 -5.62,17.72 -5.48,15.65 -5.33,13.57 -5.05,11.31 -4.76,9.04 -4.35,6.63 -3.94,4.22 -3.03,1.94 -2.11,-0.33 -2.04,-0.58 -1.97,-0.82 -1.84,-1.05 -1.72,-1.27 -1.54,-1.46 -1.36,-1.65 -1.14,-1.79 -0.92,-1.93 -0.68,-2.01 -0.44,-2.09 -0.18,-2.12 0.07,-2.14 0.32,-2.10 0.58,-2.06 0.82,-1.96 1.06,-1.86 1.26,-1.70 1.47,-1.55 1.64,-1.35 1.80,-1.15 1.91,-0.92 2.02,-0.68 2.08,-0.43 2.13,-0.18 2.12,0.07 2.11,0.33 2.11,0.33 L 2.11,0.33 Z"></path></g><g transform="translate(309.3390116502294 117.53983923965438) rotate(0 -0.3226211843107194 0.12091754085986395)" stroke="none"><path d="M1.33 -0.64 C1.35 -0.6, 1.5 1.75, 1.46 1.38 C1.43 1.01, 1.73 -3.09, 1.13 -2.87 C0.53 -2.65, -1.62 1.98, -2.13 2.68" stroke="none" stroke-width="0" fill="#1e1e1e" fill-rule="evenodd"></path><path fill="#ffffff" d="M -1.50,-1.02 Q -1.50,-1.02 -1.68,-1.99 -1.87,-2.96 -1.21,-1.17 -0.56,0.61 1.34,0.30 3.26,0.00 0.94,1.90 -1.36,3.81 -1.57,3.86 -1.77,3.92 -1.99,3.90 -2.20,3.89 -2.40,3.81 -2.59,3.73 -2.75,3.59 -2.91,3.45 -3.02,3.27 -3.13,3.09 -3.17,2.88 -3.22,2.67 -3.19,2.46 -3.17,2.25 -3.08,2.06 -2.99,1.86 -2.84,1.71 -2.69,1.56 -2.51,1.46 -2.32,1.36 -2.11,1.33 -1.90,1.30 -1.69,1.33 -1.48,1.37 -1.29,1.47 -1.10,1.57 -0.96,1.73 -0.81,1.88 -0.73,2.07 -0.64,2.27 -0.62,2.48 -0.60,2.69 -0.64,2.90 -0.69,3.10 -0.80,3.29 -0.91,3.47 -1.08,3.60 -1.24,3.74 -1.44,3.82 -1.63,3.89 -1.85,3.90 -2.06,3.91 -2.26,3.86 -2.47,3.80 -2.64,3.68 -2.82,3.56 -2.94,3.39 -3.07,3.22 -3.14,3.01 -3.20,2.81 -3.20,2.60 -3.20,2.39 -3.13,2.19 -3.06,1.99 -2.93,1.82 -2.80,1.65 -2.63,1.53 -2.45,1.41 -2.45,1.41 -2.45,1.41 -2.61,-0.42 -2.77,-2.27 -2.02,-3.09 -1.28,-3.92 0.76,-4.15 2.81,-4.38 3.13,-1.87 3.44,0.64 2.47,0.83 1.50,1.02 1.36,1.19 1.21,1.35 1.03,1.48 0.85,1.60 0.65,1.68 0.44,1.76 0.23,1.79 0.01,1.82 -0.20,1.79 -0.42,1.77 -0.63,1.69 -0.83,1.62 -1.01,1.49 -1.19,1.37 -1.34,1.20 -1.49,1.04 -1.59,0.85 -1.70,0.65 -1.75,0.44 -1.80,0.23 -1.81,0.01 -1.81,-0.20 -1.76,-0.42 -1.70,-0.63 -1.60,-0.83 -1.50,-1.02 -1.50,-1.02 L -1.50,-1.02 Z"></path></g><g transform="translate(383.48432917587843 327.1461843505979) rotate(0 3.428700325638488 2.9854232134943572)" stroke="none"><path d="M1.54 -0.59 C1.64 0.4, 0.3 5.25, 0.22 6.91 C0.13 8.58, 0.45 9.09, 1.06 9.39 C1.66 9.68, 2.86 9.13, 3.86 8.69 C4.86 8.25, 6.06 8.72, 7.06 6.74 C8.06 4.77, 9.65 -1.52, 9.87 -3.17 C10.08 -4.81, 9.15 -3.15, 8.36 -3.13 C7.57 -3.11, 6.8 -3.63, 5.12 -3.03 C3.44 -2.43, -0.6 -1.3, -1.71 0.49 C-2.82 2.28, -2.33 6.53, -1.54 7.71 C-0.74 8.88, 1.54 8.44, 3.04 7.52 C4.54 6.59, 6.71 3.45, 7.46 2.18 C8.21 0.91, 7.9 0.79, 7.53 -0.1 C7.17 -1, 6.04 -2.86, 5.27 -3.19 C4.5 -3.52, 3.64 -2.68, 2.91 -2.09 C2.18 -1.5, 1.82 -1.1, 0.91 0.34 C-0.01 1.78, -3.01 5.54, -2.55 6.56 C-2.1 7.58, 2.1 6.97, 3.64 6.45 C5.19 5.94, 6.33 4.23, 6.7 3.46 C7.07 2.7, 6.13 3.05, 5.88 1.86 C5.64 0.67, 5.45 -3.2, 5.22 -3.68 C4.99 -4.16, 5.04 -2.09, 4.5 -1 C3.96 0.08, 2.61 2.36, 1.97 2.83" stroke="none" stroke-width="0" fill="#1e1e1e" fill-rule="evenodd"></path><path fill="#1971c2" d="M 1.51,0.24 Q 1.51,0.24 2.04,2.39 2.57,4.54 3.44,3.54 4.31,2.55 4.47,1.40 4.62,0.25 4.07,1.29 3.51,2.33 3.07,3.31 2.64,4.29 2.82,3.18 3.00,2.07 3.58,0.98 4.16,-0.10 4.71,1.09 5.27,2.29 4.40,3.53 3.52,4.76 2.13,3.59 0.74,2.42 1.59,1.06 2.45,-0.29 3.32,0.61 4.19,1.53 2.98,2.65 1.78,3.77 1.58,3.86 1.39,3.95 1.18,3.97 0.97,3.98 0.76,3.94 0.55,3.89 0.37,3.77 0.19,3.66 0.06,3.50 -0.07,3.33 -0.14,3.14 -0.22,2.94 -0.23,2.72 -0.23,2.51 -0.17,2.31 -0.11,2.10 0.00,1.93 0.12,1.76 0.29,1.63 0.46,1.50 0.67,1.44 0.87,1.38 1.08,1.38 1.29,1.38 1.49,1.45 1.69,1.52 1.86,1.66 2.03,1.79 2.14,1.97 2.26,2.14 2.31,2.35 2.37,2.55 2.35,2.77 2.34,2.98 2.26,3.17 2.17,3.37 2.03,3.53 1.89,3.69 1.71,3.80 1.53,3.90 1.32,3.95 1.11,3.99 0.90,3.96 0.69,3.93 0.50,3.84 0.30,3.75 0.15,3.60 0.00,3.45 -0.09,3.26 -0.18,3.07 -0.21,2.86 -0.24,2.65 -0.21,2.44 -0.17,2.24 -0.07,2.05 0.03,1.86 0.18,1.72 0.34,1.58 0.34,1.58 0.34,1.58 0.37,-0.83 0.40,-3.24 1.72,-4.15 3.03,-5.05 4.72,-5.09 6.41,-5.13 7.73,-3.98 9.05,-2.82 9.36,-0.76 9.67,1.29 8.99,2.80 8.30,4.31 7.08,5.71 5.86,7.11 4.09,8.08 2.31,9.06 0.97,8.88 -0.36,8.71 -1.99,6.12 -3.63,3.54 -2.76,1.59 -1.88,-0.34 -0.30,-1.83 1.27,-3.32 3.46,-4.09 5.66,-4.86 7.38,-4.15 9.11,-3.43 10.11,-0.86 11.11,1.70 10.29,3.67 9.46,5.63 7.93,7.12 6.40,8.60 4.35,9.40 2.30,10.21 0.24,9.72 -1.80,9.24 -3.08,7.32 -4.37,5.39 -4.09,3.15 -3.81,0.91 -2.64,-1.01 -1.46,-2.94 0.43,-4.39 2.33,-5.84 4.58,-5.98 6.83,-6.13 8.69,-4.62 10.56,-3.11 11.02,-0.86 11.48,1.38 10.97,3.63 10.45,5.89 9.16,7.90 7.87,9.92 5.93,11.03 3.98,12.13 1.84,11.82 -0.29,11.50 -1.81,9.79 -3.32,8.08 -3.60,5.85 -3.87,3.62 -2.69,1.69 -1.51,-0.24 -1.46,-0.42 -1.41,-0.59 -1.32,-0.75 -1.23,-0.92 -1.10,-1.05 -0.97,-1.18 -0.82,-1.28 -0.66,-1.38 -0.48,-1.44 -0.31,-1.50 -0.12,-1.52 0.05,-1.53 0.24,-1.50 0.42,-1.47 0.59,-1.40 0.76,-1.33 0.91,-1.22 1.06,-1.11 1.18,-0.97 1.29,-0.82 1.37,-0.65 1.45,-0.49 1.49,-0.31 1.53,-0.12 1.52,0.05 1.51,0.24 1.51,0.24 L 1.51,0.24 Z"></path></g><g transform="translate(460.5331327151141 228.63611314818831) rotate(0 -0.24146882348270537 5.324714574076836)" stroke="none"><path d="M-1.57 0.38 C-2.19 0.95, -3.81 1.36, -4.01 2.55 C-4.2 3.73, -2.92 6.1, -2.74 7.5 C-2.55 8.9, -3.28 10.06, -2.9 10.95 C-2.52 11.85, -1.27 12.7, -0.46 12.89 C0.34 13.07, 1.56 12.4, 1.96 12.06 C2.36 11.73, 1.42 12.03, 1.95 10.87 C2.48 9.71, 4.61 7.29, 5.13 5.13 C5.66 2.97, 5.78 -1, 5.08 -2.09 C4.38 -3.17, 2.06 -1.44, 0.91 -1.4 C-0.23 -1.37, -0.74 -3.28, -1.79 -1.87 C-2.83 -0.46, -4.98 5.07, -5.37 7.06 C-5.76 9.04, -4.16 9.48, -4.11 10.04 C-4.07 10.61, -5.07 10.01, -5.09 10.44 C-5.11 10.88, -5.33 13.29, -4.25 12.65 C-3.17 12.01, 0.8 8.19, 1.39 6.6 C1.98 5, -0.31 3.26, -0.72 3.09 C-1.13 2.92, -0.72 4.55, -1.06 5.57 C-1.39 6.59, -2.78 8.36, -2.73 9.23 C-2.68 10.11, -1.91 10.54, -0.77 10.81 C0.36 11.07, 3.25 11.13, 4.07 10.83 C4.9 10.54, 4.01 9.87, 4.17 9.03 C4.33 8.2, 5.4 6.48, 5.03 5.84 C4.66 5.2, 3.09 4.89, 1.96 5.21 C0.83 5.53, -1.23 7.21, -1.73 7.75" stroke="none" stroke-width="0" fill="#1e1e1e" fill-rule="evenodd"></path><path fill="#1971c2" d="M 1.29,0.73 Q 1.29,0.73 0.92,3.29 0.55,5.85 0.40,7.10 0.24,8.34 0.44,7.14 0.63,5.95 0.85,4.85 1.06,3.75 0.07,5.05 -0.92,6.36 -1.18,7.46 -1.43,8.56 -2.33,7.93 -3.22,7.30 -0.54,7.56 2.13,7.81 1.35,7.07 0.57,6.33 1.32,7.40 2.07,8.48 1.24,8.09 0.41,7.70 0.25,7.84 0.08,7.97 -0.11,8.04 -0.30,8.12 -0.52,8.12 -0.73,8.13 -0.93,8.07 -1.14,8.01 -1.31,7.88 -1.48,7.76 -1.61,7.59 -1.73,7.42 -1.79,7.21 -1.86,7.01 -1.85,6.80 -1.85,6.58 -1.77,6.39 -1.70,6.19 -1.57,6.02 -1.44,5.85 -1.26,5.74 -1.08,5.62 -0.87,5.57 -0.67,5.52 -0.45,5.54 -0.24,5.55 -0.05,5.64 0.14,5.72 0.30,5.86 0.46,6.00 0.56,6.19 0.67,6.37 0.71,6.58 0.75,6.79 0.72,7.00 0.69,7.21 0.60,7.40 0.50,7.59 0.35,7.74 0.20,7.89 0.01,7.99 -0.17,8.08 -0.38,8.11 -0.59,8.14 -0.80,8.10 -1.01,8.06 -1.19,7.96 -1.38,7.85 -1.52,7.70 -1.66,7.54 -1.75,7.34 -1.83,7.15 -1.85,6.94 -1.86,6.73 -1.81,6.52 -1.76,6.31 -1.65,6.13 -1.54,5.95 -1.54,5.95 -1.54,5.95 0.48,3.59 2.50,1.23 3.89,1.81 5.29,2.39 6.41,4.42 7.53,6.45 7.26,7.79 6.98,9.12 6.04,10.58 5.10,12.05 3.46,12.90 1.83,13.75 -0.00,13.37 -1.85,12.99 -3.16,11.39 -4.47,9.79 -4.56,8.03 -4.66,6.26 -3.18,4.17 -1.70,2.07 1.17,3.54 4.04,5.01 3.93,6.81 3.81,8.62 3.01,10.09 2.21,11.57 0.74,12.81 -0.73,14.05 -2.51,14.14 -4.29,14.24 -6.17,12.63 -8.04,11.03 -8.23,8.85 -8.43,6.68 -7.72,4.56 -7.01,2.44 -5.54,0.43 -4.07,-1.57 -1.95,-2.72 0.17,-3.87 2.36,-3.45 4.55,-3.03 6.08,-1.04 7.61,0.95 7.74,3.23 7.87,5.51 7.14,7.74 6.41,9.97 4.82,11.80 3.23,13.64 1.05,14.15 -1.12,14.65 -3.22,13.34 -5.32,12.02 -5.94,9.66 -6.56,7.30 -5.97,4.94 -5.37,2.58 -3.33,0.92 -1.29,-0.73 -1.18,-0.88 -1.07,-1.02 -0.94,-1.14 -0.80,-1.25 -0.64,-1.33 -0.47,-1.41 -0.30,-1.44 -0.12,-1.48 0.05,-1.47 0.23,-1.47 0.40,-1.42 0.57,-1.37 0.73,-1.28 0.89,-1.19 1.02,-1.07 1.15,-0.94 1.24,-0.79 1.34,-0.64 1.40,-0.47 1.45,-0.30 1.47,-0.12 1.48,0.05 1.46,0.23 1.43,0.40 1.36,0.57 1.29,0.73 1.29,0.73 L 1.29,0.73 Z"></path></g><g transform="translate(601.239396837027 135.04734923295382) rotate(0 4.558502341989993 1.4922930259047007)" stroke="none"><path d="M0.76 -0.05 C0.68 1.25, 0.23 5.34, 0.56 6.57 C0.89 7.8, 1.97 7.09, 2.76 7.32 C3.56 7.55, 4.42 8.25, 5.32 7.93 C6.22 7.62, 7.47 6.77, 8.18 5.43 C8.89 4.09, 9.34 1.63, 9.57 -0.12 C9.79 -1.87, 9.76 -4.24, 9.52 -5.07 C9.29 -5.89, 9.78 -5.75, 8.14 -5.08 C6.5 -4.4, 1.19 -2.93, -0.3 -1.04 C-1.79 0.85, -0.8 4.96, -0.8 6.25 C-0.8 7.53, -0.87 6.43, -0.3 6.67 C0.28 6.92, 1.69 8.52, 2.67 7.74 C3.65 6.97, 4.98 3.23, 5.59 2.01 C6.2 0.79, 6.13 1.56, 6.31 0.42 C6.5 -0.72, 7.26 -4.05, 6.68 -4.84 C6.09 -5.63, 3.75 -4.66, 2.8 -4.34 C1.84 -4.03, 0.92 -3.76, 0.94 -2.95 C0.96 -2.14, 2.6 -0.59, 2.92 0.52 C3.24 1.62, 2.45 4.02, 2.85 3.66 C3.25 3.31, 4.82 -0.57, 5.31 -1.62 C5.8 -2.66, 6.01 -2.61, 5.78 -2.61 C5.56 -2.61, 4.67 -2.38, 3.97 -1.59 C3.27 -0.8, 2.38 1.69, 1.56 2.11" stroke="none" stroke-width="0" fill="#1e1e1e" fill-rule="evenodd"></path><path fill="#1971c2" d="M 1.57,-0.47 Q 1.57,-0.47 2.95,1.15 4.33,2.77 4.62,1.69 4.90,0.60 5.20,-0.43 5.50,-1.48 4.83,0.54 4.16,2.58 3.94,3.68 3.72,4.79 2.59,4.54 1.46,4.30 1.67,2.30 1.89,0.30 3.08,-0.08 4.28,-0.48 3.13,0.30 1.98,1.10 1.85,1.27 1.71,1.43 1.53,1.55 1.36,1.66 1.15,1.71 0.94,1.77 0.73,1.75 0.52,1.73 0.32,1.65 0.13,1.57 -0.02,1.42 -0.18,1.28 -0.28,1.10 -0.39,0.91 -0.43,0.70 -0.47,0.50 -0.44,0.29 -0.41,0.07 -0.32,-0.11 -0.22,-0.30 -0.07,-0.45 0.07,-0.60 0.26,-0.69 0.45,-0.79 0.66,-0.82 0.87,-0.85 1.08,-0.81 1.28,-0.77 1.47,-0.66 1.65,-0.56 1.80,-0.40 1.94,-0.24 2.02,-0.05 2.11,0.14 2.13,0.35 2.14,0.56 2.09,0.77 2.04,0.97 1.93,1.15 1.81,1.33 1.65,1.47 1.48,1.60 1.28,1.67 1.08,1.75 0.87,1.75 0.66,1.76 0.46,1.70 0.25,1.63 0.08,1.51 -0.08,1.39 -0.21,1.22 -0.33,1.04 -0.39,0.84 -0.46,0.64 -0.45,0.42 -0.45,0.21 -0.37,0.01 -0.30,-0.18 -0.30,-0.18 -0.30,-0.18 0.27,-2.69 0.86,-5.20 2.42,-5.86 3.99,-6.52 5.75,-6.05 7.52,-5.58 8.65,-3.93 9.78,-2.28 9.73,-0.93 9.68,0.42 8.88,1.86 8.09,3.29 6.48,4.12 4.86,4.96 3.03,4.68 1.20,4.40 -0.11,3.09 -1.43,1.77 -1.81,-0.04 -2.19,-1.86 -1.46,-3.62 -0.74,-5.38 0.95,-6.26 2.66,-7.13 4.72,-6.47 6.79,-5.80 7.83,-3.88 8.87,-1.97 8.89,0.00 8.91,1.98 8.31,4.04 7.71,6.10 6.34,7.86 4.96,9.62 3.28,10.01 1.59,10.41 -0.61,8.88 -2.82,7.36 -3.02,5.19 -3.21,3.02 -2.54,0.90 -1.88,-1.20 -0.50,-3.10 0.86,-5.00 2.83,-6.18 4.81,-7.37 6.84,-7.20 8.87,-7.03 10.44,-5.25 12.00,-3.46 12.01,-1.35 12.01,0.75 11.17,2.80 10.33,4.85 8.55,6.60 6.77,8.35 4.48,8.52 2.18,8.70 0.13,6.99 -1.92,5.29 -1.75,2.88 -1.57,0.47 -1.61,0.27 -1.64,0.08 -1.63,-0.11 -1.61,-0.31 -1.55,-0.50 -1.49,-0.69 -1.38,-0.86 -1.28,-1.03 -1.14,-1.16 -1.00,-1.30 -0.82,-1.40 -0.65,-1.50 -0.46,-1.56 -0.27,-1.62 -0.07,-1.63 0.11,-1.64 0.31,-1.60 0.50,-1.56 0.68,-1.48 0.86,-1.39 1.02,-1.27 1.17,-1.15 1.29,-0.99 1.41,-0.83 1.49,-0.65 1.57,-0.47 1.57,-0.47 L 1.57,-0.47 Z"></path></g><g transform="translate(311.8406600550734 236.30095624453247) rotate(0 5.72817418358386 2.7427248087869316)" stroke="none"><path d="M-1.19 1.56 C-1.41 2.94, -1.06 5.67, -0.58 7.18 C-0.11 8.69, 0.64 9.94, 1.67 10.62 C2.69 11.3, 4.06 12.28, 5.58 11.24 C7.11 10.19, 10.13 6.89, 10.84 4.37 C11.55 1.85, 9.87 -2.55, 9.85 -3.91 C9.83 -5.27, 11.69 -4.36, 10.71 -3.79 C9.74 -3.22, 5.48 -1.77, 3.99 -0.51 C2.51 0.76, 2.18 2.37, 1.78 3.8 C1.38 5.23, 0.84 8.04, 1.6 8.07 C2.37 8.11, 5.39 4.95, 6.36 4.02 C7.33 3.09, 7.67 3.58, 7.44 2.52 C7.21 1.45, 5.53 -1.15, 4.99 -2.36 C4.45 -3.57, 4.85 -4.9, 4.22 -4.73 C3.6 -4.56, 1.83 -1.98, 1.23 -1.36 C0.63 -0.73, 0.59 -2.07, 0.6 -1 C0.61 0.07, 0.16 4.16, 1.3 5.08 C2.43 6, 6.24 5.51, 7.41 4.53 C8.57 3.55, 8.5 -0.23, 8.29 -0.81 C8.08 -1.38, 7.2 0.26, 6.14 1.08 C5.08 1.9, 2.86 3.88, 1.91 4.11" stroke="none" stroke-width="0" fill="#1e1e1e" fill-rule="evenodd"></path><path fill="#1971c2" d="M 1.52,-0.12 Q 1.52,-0.12 2.63,2.31 3.75,4.75 4.62,3.82 5.50,2.88 6.21,1.42 6.92,-0.03 7.21,-1.19 7.50,-2.35 8.41,-1.59 9.31,-0.84 8.69,0.03 8.08,0.91 7.28,1.98 6.48,3.05 5.98,4.13 5.49,5.21 3.28,4.50 1.08,3.78 1.54,2.81 2.00,1.84 2.16,0.18 2.32,-1.48 3.47,-0.65 4.62,0.18 4.64,1.41 4.65,2.65 4.04,3.43 3.42,4.21 3.28,4.37 3.14,4.54 2.96,4.65 2.78,4.76 2.57,4.80 2.37,4.85 2.15,4.83 1.94,4.81 1.75,4.72 1.56,4.63 1.40,4.49 1.25,4.34 1.15,4.16 1.04,3.97 1.01,3.76 0.97,3.55 1.01,3.34 1.04,3.13 1.14,2.94 1.24,2.75 1.39,2.61 1.54,2.46 1.73,2.37 1.93,2.28 2.14,2.25 2.35,2.23 2.56,2.27 2.76,2.32 2.95,2.43 3.13,2.53 3.27,2.69 3.41,2.86 3.49,3.05 3.57,3.25 3.58,3.46 3.59,3.67 3.54,3.88 3.48,4.08 3.36,4.26 3.25,4.44 3.08,4.57 2.91,4.70 2.71,4.77 2.51,4.84 2.29,4.84 2.08,4.84 1.88,4.77 1.68,4.70 1.51,4.58 1.34,4.45 1.22,4.27 1.10,4.10 1.04,3.90 0.98,3.69 0.99,3.48 1.00,3.27 1.08,3.07 1.16,2.87 1.16,2.87 1.16,2.87 2.04,0.13 2.93,-2.59 4.74,-2.91 6.54,-3.23 7.91,-2.31 9.28,-1.39 9.76,0.93 10.24,3.26 9.30,4.68 8.37,6.11 6.65,6.82 4.94,7.52 3.02,6.98 1.11,6.43 -0.04,4.88 -1.20,3.33 -1.41,1.51 -1.62,-0.30 -1.04,-2.02 -0.46,-3.75 1.00,-4.98 2.47,-6.22 4.25,-6.11 6.03,-6.01 7.62,-4.16 9.20,-2.31 9.24,-0.51 9.28,1.28 8.81,3.18 8.33,5.07 6.33,7.29 4.32,9.51 1.53,7.89 -1.25,6.28 -1.07,4.19 -0.89,2.11 0.08,0.29 1.06,-1.51 2.64,-3.22 4.22,-4.93 6.35,-5.97 8.49,-7.01 9.99,-6.62 11.48,-6.23 12.82,-3.60 14.16,-0.98 13.60,1.06 13.05,3.10 11.88,5.24 10.72,7.38 8.99,9.18 7.25,10.99 5.08,11.58 2.92,12.17 0.80,10.98 -1.32,9.79 -2.11,7.57 -2.91,5.35 -2.21,2.73 -1.52,0.12 -1.51,-0.05 -1.50,-0.24 -1.45,-0.41 -1.40,-0.59 -1.31,-0.75 -1.22,-0.91 -1.09,-1.04 -0.96,-1.18 -0.81,-1.27 -0.65,-1.37 -0.48,-1.43 -0.30,-1.49 -0.12,-1.51 0.05,-1.52 0.24,-1.49 0.42,-1.46 0.59,-1.39 0.76,-1.32 0.90,-1.21 1.05,-1.10 1.17,-0.96 1.28,-0.81 1.36,-0.65 1.44,-0.48 1.48,-0.30 1.52,-0.12 1.52,-0.12 L 1.52,-0.12 Z"></path></g><g transform="translate(371.0596986749358 150.0539956604889) rotate(0 9.519993390039303 -1.4525278458729076)" stroke="none"><path fill="#e03131" d="M -0.33,-1.66 Q -0.33,-1.66 1.48,-2.67 3.30,-3.69 4.98,-4.05 6.66,-4.40 8.04,-4.66 9.43,-4.93 10.67,-5.13 11.92,-5.33 13.12,-5.39 14.32,-5.44 16.50,-4.71 18.68,-3.98 18.89,-3.94 19.10,-3.90 19.28,-3.80 19.46,-3.69 19.61,-3.53 19.75,-3.37 19.83,-3.18 19.91,-2.98 19.93,-2.77 19.95,-2.56 19.90,-2.35 19.84,-2.15 19.73,-1.97 19.61,-1.79 19.45,-1.66 19.28,-1.52 19.08,-1.45 18.88,-1.38 18.67,-1.37 18.46,-1.37 18.26,-1.43 18.05,-1.49 17.88,-1.62 17.71,-1.74 17.58,-1.92 17.46,-2.09 17.40,-2.29 17.34,-2.50 17.34,-2.71 17.35,-2.92 17.42,-3.12 17.50,-3.32 17.63,-3.48 17.77,-3.65 17.94,-3.76 18.12,-3.88 18.33,-3.93 18.54,-3.98 18.75,-3.96 18.96,-3.94 19.15,-3.86 19.35,-3.77 19.51,-3.63 19.67,-3.49 19.77,-3.30 19.87,-3.12 19.91,-2.91 19.95,-2.70 19.92,-2.49 19.89,-2.28 19.80,-2.09 19.70,-1.90 19.55,-1.75 19.40,-1.60 19.21,-1.51 19.02,-1.41 18.81,-1.38 18.60,-1.36 18.60,-1.36 18.60,-1.36 15.75,-0.44 12.91,0.46 11.73,0.67 10.56,0.87 9.22,1.14 7.87,1.41 6.18,1.76 4.48,2.11 2.41,1.88 0.33,1.66 0.13,1.67 -0.07,1.69 -0.27,1.65 -0.47,1.62 -0.66,1.54 -0.84,1.46 -1.01,1.34 -1.17,1.21 -1.30,1.06 -1.43,0.90 -1.52,0.71 -1.60,0.53 -1.64,0.33 -1.68,0.13 -1.67,-0.07 -1.67,-0.27 -1.61,-0.47 -1.55,-0.66 -1.45,-0.84 -1.35,-1.01 -1.21,-1.16 -1.06,-1.31 -0.89,-1.42 -0.72,-1.53 -0.52,-1.59 -0.33,-1.66 -0.33,-1.66 L -0.33,-1.66 Z"></path></g><g transform="translate(411.7216881616853 147.31045985131982) rotate(0 9.762299375206794 -1.734599011072305)" stroke="none"><path fill="#e03131" d="M -0.32,-1.52 Q -0.32,-1.52 1.93,-2.51 4.19,-3.49 6.08,-3.88 7.96,-4.27 9.61,-4.56 11.27,-4.86 12.96,-4.73 14.64,-4.59 16.61,-4.65 18.58,-4.71 18.79,-4.69 19.00,-4.67 19.20,-4.59 19.39,-4.50 19.55,-4.36 19.71,-4.22 19.81,-4.03 19.92,-3.85 19.96,-3.64 20.00,-3.43 19.97,-3.22 19.94,-3.01 19.84,-2.82 19.75,-2.63 19.60,-2.48 19.45,-2.33 19.26,-2.24 19.06,-2.14 18.85,-2.11 18.64,-2.09 18.44,-2.13 18.23,-2.17 18.04,-2.27 17.86,-2.38 17.72,-2.53 17.57,-2.69 17.49,-2.89 17.41,-3.08 17.39,-3.30 17.37,-3.51 17.43,-3.71 17.48,-3.92 17.59,-4.10 17.71,-4.28 17.87,-4.41 18.04,-4.54 18.24,-4.62 18.44,-4.69 18.65,-4.69 18.86,-4.70 19.07,-4.64 19.27,-4.57 19.44,-4.45 19.61,-4.32 19.74,-4.15 19.86,-3.98 19.92,-3.78 19.98,-3.57 19.98,-3.36 19.97,-3.15 19.90,-2.95 19.82,-2.75 19.69,-2.58 19.56,-2.42 19.38,-2.30 19.20,-2.19 18.99,-2.14 18.79,-2.09 18.79,-2.09 18.79,-2.09 16.95,-1.84 15.12,-1.60 13.70,-0.97 12.28,-0.34 10.66,0.09 9.04,0.53 7.15,0.99 5.26,1.45 2.79,1.49 0.32,1.52 0.14,1.54 -0.04,1.56 -0.23,1.53 -0.41,1.50 -0.59,1.43 -0.76,1.36 -0.91,1.25 -1.07,1.13 -1.19,0.99 -1.31,0.84 -1.39,0.68 -1.47,0.51 -1.51,0.32 -1.55,0.14 -1.55,-0.04 -1.54,-0.23 -1.49,-0.41 -1.44,-0.59 -1.35,-0.76 -1.25,-0.92 -1.13,-1.06 -1.00,-1.19 -0.84,-1.30 -0.68,-1.40 -0.50,-1.46 -0.32,-1.52 -0.32,-1.52 L -0.32,-1.52 Z"></path></g><g transform="translate(455.6118777505444 144.32582147690505) rotate(0 9.31865600482547 -1.0892781585426974)" stroke="none"><path fill="#e03131" d="M -0.21,-1.84 Q -0.21,-1.84 2.29,-2.45 4.81,-3.06 6.86,-3.23 8.91,-3.39 10.82,-3.28 12.73,-3.18 15.09,-3.27 17.45,-3.36 17.66,-3.35 17.88,-3.34 18.07,-3.26 18.27,-3.18 18.43,-3.05 18.60,-2.91 18.71,-2.73 18.82,-2.55 18.87,-2.34 18.91,-2.14 18.89,-1.92 18.87,-1.71 18.78,-1.52 18.70,-1.33 18.55,-1.17 18.41,-1.01 18.22,-0.91 18.03,-0.81 17.82,-0.78 17.61,-0.74 17.40,-0.77 17.19,-0.81 17.01,-0.90 16.82,-1.00 16.67,-1.15 16.52,-1.31 16.43,-1.50 16.34,-1.69 16.32,-1.90 16.29,-2.11 16.34,-2.32 16.38,-2.53 16.49,-2.71 16.60,-2.90 16.76,-3.03 16.92,-3.17 17.11,-3.25 17.31,-3.33 17.52,-3.35 17.74,-3.36 17.94,-3.30 18.15,-3.25 18.32,-3.13 18.50,-3.01 18.63,-2.85 18.76,-2.68 18.83,-2.48 18.90,-2.28 18.90,-2.06 18.90,-1.85 18.84,-1.65 18.77,-1.45 18.64,-1.28 18.51,-1.11 18.34,-0.99 18.17,-0.87 17.96,-0.81 17.76,-0.75 17.76,-0.75 17.76,-0.75 15.45,-0.29 13.15,0.15 11.29,0.73 9.42,1.30 7.41,1.58 5.39,1.86 2.80,1.85 0.21,1.84 -0.00,1.84 -0.22,1.84 -0.44,1.78 -0.66,1.73 -0.86,1.63 -1.06,1.52 -1.22,1.37 -1.39,1.22 -1.52,1.04 -1.64,0.85 -1.72,0.64 -1.80,0.43 -1.83,0.21 -1.85,-0.00 -1.83,-0.22 -1.80,-0.45 -1.72,-0.65 -1.64,-0.86 -1.51,-1.05 -1.38,-1.23 -1.21,-1.38 -1.05,-1.53 -0.85,-1.63 -0.65,-1.73 -0.43,-1.79 -0.21,-1.84 -0.21,-1.84 L -0.21,-1.84 Z"></path></g><g transform="translate(501.0344918035771 138.51654725509843) rotate(0 9.802849394318173 -1.9765125767000882)" stroke="none"><path fill="#e03131" d="M -0.48,-1.44 Q -0.48,-1.44 1.37,-2.59 3.23,-3.74 5.16,-4.25 7.09,-4.75 8.84,-5.04 10.58,-5.33 12.43,-5.21 14.27,-5.09 16.44,-5.11 18.60,-5.13 18.82,-5.10 19.03,-5.08 19.22,-4.99 19.41,-4.90 19.57,-4.76 19.72,-4.61 19.82,-4.43 19.92,-4.24 19.96,-4.03 19.99,-3.82 19.96,-3.61 19.92,-3.40 19.83,-3.21 19.73,-3.02 19.57,-2.88 19.42,-2.73 19.23,-2.64 19.03,-2.55 18.82,-2.53 18.61,-2.50 18.40,-2.55 18.20,-2.59 18.01,-2.70 17.83,-2.81 17.69,-2.97 17.55,-3.14 17.48,-3.33 17.40,-3.53 17.38,-3.74 17.37,-3.95 17.43,-4.16 17.49,-4.36 17.60,-4.54 17.72,-4.72 17.89,-4.84 18.06,-4.97 18.26,-5.04 18.46,-5.11 18.68,-5.11 18.89,-5.11 19.09,-5.04 19.29,-4.98 19.46,-4.85 19.63,-4.72 19.75,-4.55 19.87,-4.37 19.93,-4.16 19.98,-3.96 19.97,-3.75 19.96,-3.54 19.88,-3.34 19.81,-3.14 19.67,-2.98 19.53,-2.82 19.35,-2.71 19.17,-2.60 18.96,-2.55 18.75,-2.50 18.75,-2.50 18.75,-2.50 16.74,-2.28 14.72,-2.07 13.15,-1.44 11.58,-0.82 9.99,-0.36 8.39,0.09 6.61,0.57 4.83,1.05 2.65,1.25 0.48,1.44 0.30,1.48 0.12,1.52 -0.06,1.51 -0.24,1.50 -0.42,1.45 -0.59,1.40 -0.75,1.31 -0.91,1.22 -1.05,1.09 -1.18,0.96 -1.28,0.80 -1.38,0.65 -1.43,0.47 -1.49,0.30 -1.51,0.12 -1.52,-0.06 -1.49,-0.24 -1.46,-0.42 -1.39,-0.59 -1.32,-0.76 -1.21,-0.91 -1.10,-1.05 -0.95,-1.17 -0.81,-1.29 -0.64,-1.37 -0.48,-1.44 -0.48,-1.44 L -0.48,-1.44 Z"></path></g><g transform="translate(546.5382058948326 135.61227640243214) rotate(0 8.2695877684597 -0.8068407351061637)" stroke="none"><path fill="#e03131" d="M -0.41,-1.81 Q -0.41,-1.81 1.33,-2.58 3.09,-3.35 4.94,-3.58 6.79,-3.81 8.44,-3.76 10.09,-3.72 13.03,-3.20 15.97,-2.69 16.18,-2.65 16.39,-2.61 16.58,-2.51 16.76,-2.41 16.91,-2.25 17.05,-2.10 17.14,-1.90 17.22,-1.71 17.24,-1.50 17.26,-1.28 17.21,-1.08 17.17,-0.87 17.05,-0.69 16.94,-0.51 16.78,-0.38 16.61,-0.24 16.41,-0.16 16.22,-0.09 16.00,-0.08 15.79,-0.07 15.59,-0.13 15.38,-0.19 15.21,-0.31 15.04,-0.44 14.91,-0.61 14.78,-0.78 14.72,-0.98 14.65,-1.18 14.66,-1.40 14.66,-1.61 14.73,-1.81 14.80,-2.01 14.93,-2.18 15.07,-2.34 15.24,-2.46 15.42,-2.58 15.63,-2.63 15.83,-2.68 16.04,-2.67 16.26,-2.65 16.45,-2.57 16.65,-2.49 16.81,-2.35 16.97,-2.21 17.07,-2.03 17.18,-1.84 17.22,-1.63 17.27,-1.43 17.24,-1.22 17.21,-1.00 17.12,-0.81 17.03,-0.62 16.88,-0.47 16.73,-0.32 16.54,-0.22 16.35,-0.12 16.14,-0.09 15.93,-0.06 15.93,-0.06 15.93,-0.06 13.09,0.44 10.24,0.96 8.84,1.10 7.45,1.25 5.84,1.46 4.23,1.68 2.32,1.74 0.41,1.81 0.18,1.83 -0.03,1.85 -0.25,1.82 -0.47,1.79 -0.68,1.71 -0.89,1.62 -1.07,1.49 -1.25,1.36 -1.40,1.19 -1.54,1.02 -1.64,0.82 -1.74,0.62 -1.79,0.40 -1.84,0.19 -1.84,-0.03 -1.84,-0.25 -1.78,-0.47 -1.72,-0.68 -1.61,-0.88 -1.51,-1.08 -1.35,-1.24 -1.20,-1.41 -1.02,-1.53 -0.83,-1.66 -0.62,-1.73 -0.41,-1.81 -0.41,-1.81 L -0.41,-1.81 Z"></path></g><g transform="translate(582.1985728952639 133.03026047583967) rotate(0 7.341803331190931 -0.40340728690176775)" stroke="none"><path fill="#e03131" d="M -0.22,-1.65 Q -0.22,-1.65 1.58,-2.22 3.39,-2.78 5.15,-2.91 6.90,-3.04 8.41,-2.90 9.92,-2.76 12.15,-2.02 14.38,-1.27 14.59,-1.21 14.79,-1.15 14.97,-1.03 15.14,-0.91 15.27,-0.74 15.40,-0.57 15.46,-0.37 15.53,-0.17 15.53,0.03 15.53,0.25 15.46,0.45 15.39,0.65 15.26,0.82 15.13,0.98 14.95,1.10 14.77,1.22 14.57,1.27 14.36,1.33 14.15,1.32 13.94,1.30 13.74,1.22 13.54,1.14 13.38,1.00 13.22,0.86 13.11,0.68 13.01,0.50 12.96,0.29 12.92,0.08 12.94,-0.12 12.97,-0.33 13.06,-0.52 13.15,-0.71 13.30,-0.87 13.45,-1.02 13.63,-1.12 13.82,-1.22 14.03,-1.25 14.24,-1.28 14.45,-1.24 14.66,-1.21 14.85,-1.11 15.03,-1.01 15.18,-0.85 15.32,-0.69 15.41,-0.50 15.50,-0.31 15.52,-0.10 15.54,0.11 15.49,0.31 15.45,0.52 15.34,0.70 15.22,0.88 15.06,1.02 14.90,1.15 14.70,1.23 14.50,1.31 14.29,1.32 14.08,1.33 14.08,1.33 14.08,1.33 11.80,1.55 9.52,1.77 8.36,1.68 7.19,1.59 5.61,1.67 4.02,1.76 2.12,1.71 0.22,1.65 0.02,1.65 -0.17,1.66 -0.37,1.61 -0.56,1.57 -0.74,1.48 -0.92,1.38 -1.07,1.25 -1.23,1.12 -1.34,0.96 -1.46,0.79 -1.54,0.61 -1.61,0.42 -1.64,0.22 -1.67,0.02 -1.64,-0.17 -1.62,-0.37 -1.55,-0.56 -1.49,-0.75 -1.37,-0.92 -1.26,-1.08 -1.11,-1.22 -0.97,-1.35 -0.79,-1.45 -0.61,-1.55 -0.42,-1.60 -0.22,-1.65 -0.22,-1.65 L -0.22,-1.65 Z"></path></g><g transform="translate(365.97687150518436 164.57608244029416) rotate(0 7.543506974641787 8.713571235775476)" stroke="none"><path fill="#e03131" d="M 1.35,-1.59 Q 1.35,-1.59 3.03,-0.74 4.70,0.10 6.05,1.25 7.40,2.41 8.56,3.45 9.73,4.49 10.77,5.65 11.82,6.80 12.69,8.07 13.56,9.34 14.21,10.69 14.85,12.04 15.40,14.19 15.94,16.35 16.03,16.54 16.12,16.73 16.14,16.94 16.16,17.16 16.12,17.36 16.07,17.57 15.96,17.75 15.85,17.93 15.69,18.07 15.52,18.21 15.33,18.29 15.13,18.36 14.92,18.37 14.70,18.38 14.50,18.33 14.30,18.27 14.12,18.15 13.95,18.03 13.82,17.86 13.69,17.69 13.62,17.49 13.55,17.29 13.56,17.08 13.56,16.86 13.63,16.66 13.69,16.46 13.82,16.29 13.95,16.12 14.13,16.00 14.30,15.89 14.51,15.83 14.71,15.77 14.93,15.79 15.14,15.80 15.34,15.88 15.53,15.96 15.69,16.10 15.86,16.23 15.96,16.42 16.07,16.60 16.12,16.81 16.16,17.01 16.14,17.22 16.12,17.44 16.03,17.63 15.94,17.82 15.79,17.97 15.64,18.13 15.45,18.23 15.27,18.33 15.06,18.36 14.85,18.39 14.64,18.36 14.43,18.32 14.24,18.22 14.05,18.12 13.91,17.97 13.76,17.81 13.76,17.81 13.76,17.81 11.97,16.29 10.19,14.76 9.44,13.72 8.69,12.69 8.03,11.73 7.37,10.77 6.56,9.85 5.75,8.94 4.62,7.93 3.49,6.93 2.17,5.78 0.85,4.63 -0.24,3.11 -1.35,1.59 -1.52,1.40 -1.69,1.22 -1.81,1.00 -1.93,0.78 -2.00,0.53 -2.06,0.29 -2.07,0.04 -2.07,-0.20 -2.02,-0.45 -1.96,-0.70 -1.85,-0.92 -1.74,-1.15 -1.57,-1.34 -1.41,-1.53 -1.21,-1.68 -1.00,-1.82 -0.77,-1.92 -0.54,-2.01 -0.29,-2.05 -0.04,-2.08 0.20,-2.06 0.45,-2.03 0.69,-1.95 0.93,-1.86 1.14,-1.72 1.35,-1.59 1.35,-1.59 L 1.35,-1.59 Z"></path></g><g transform="translate(389.3740755646443 188.2963262649073) rotate(0 8.108015563277718 5.0828533310542525)" stroke="none"><path fill="#e03131" d="M 0.69,-1.20 Q 0.69,-1.20 2.56,-0.81 4.43,-0.42 5.64,0.31 6.84,1.04 7.88,1.74 8.91,2.43 9.88,3.10 10.84,3.76 11.73,4.37 12.63,4.97 14.62,6.92 16.60,8.86 16.76,9.00 16.92,9.14 17.03,9.32 17.14,9.50 17.18,9.71 17.23,9.92 17.20,10.13 17.18,10.34 17.09,10.53 17.00,10.73 16.85,10.88 16.70,11.03 16.52,11.13 16.33,11.23 16.12,11.26 15.91,11.29 15.70,11.26 15.49,11.22 15.30,11.12 15.11,11.02 14.97,10.87 14.82,10.71 14.74,10.52 14.65,10.32 14.63,10.11 14.61,9.90 14.65,9.69 14.70,9.49 14.81,9.30 14.92,9.12 15.09,8.99 15.25,8.85 15.45,8.77 15.64,8.70 15.86,8.69 16.07,8.68 16.27,8.73 16.48,8.79 16.65,8.91 16.83,9.03 16.95,9.20 17.08,9.37 17.15,9.58 17.21,9.78 17.21,9.99 17.21,10.20 17.14,10.40 17.07,10.60 16.94,10.77 16.81,10.94 16.64,11.06 16.46,11.18 16.25,11.23 16.05,11.29 15.84,11.27 15.63,11.26 15.43,11.18 15.23,11.10 15.23,11.10 15.23,11.10 12.52,10.13 9.81,9.15 8.86,8.51 7.92,7.87 7.06,7.24 6.20,6.61 5.23,6.01 4.27,5.40 3.07,4.72 1.87,4.03 0.59,2.62 -0.69,1.20 -0.82,1.10 -0.96,1.00 -1.06,0.87 -1.17,0.74 -1.24,0.59 -1.32,0.44 -1.35,0.28 -1.38,0.11 -1.38,-0.05 -1.37,-0.21 -1.32,-0.38 -1.28,-0.54 -1.19,-0.68 -1.11,-0.83 -1.00,-0.95 -0.88,-1.07 -0.74,-1.16 -0.60,-1.25 -0.44,-1.31 -0.28,-1.36 -0.11,-1.37 0.05,-1.39 0.21,-1.36 0.38,-1.33 0.53,-1.27 0.69,-1.20 0.69,-1.20 L 0.69,-1.20 Z"></path></g><g transform="translate(419.1446961763097 207.2559455232372) rotate(0 6.696508639964009 3.993575172511555)" stroke="none"><path fill="#e03131" d="M 1.00,-1.33 Q 1.00,-1.33 2.37,-1.03 3.74,-0.74 4.89,0.16 6.03,1.07 7.03,1.94 8.03,2.81 8.65,3.70 9.26,4.59 11.35,5.61 13.44,6.62 13.63,6.72 13.82,6.81 13.97,6.96 14.11,7.11 14.21,7.31 14.30,7.50 14.33,7.71 14.35,7.92 14.31,8.13 14.27,8.34 14.17,8.52 14.06,8.70 13.90,8.84 13.74,8.98 13.54,9.07 13.35,9.15 13.14,9.17 12.93,9.18 12.72,9.13 12.51,9.08 12.34,8.96 12.16,8.84 12.03,8.68 11.89,8.51 11.82,8.31 11.75,8.11 11.75,7.90 11.74,7.69 11.81,7.48 11.87,7.28 12.00,7.11 12.12,6.94 12.29,6.81 12.47,6.69 12.67,6.63 12.87,6.57 13.09,6.58 13.30,6.59 13.50,6.66 13.70,6.73 13.86,6.87 14.03,7.00 14.14,7.18 14.25,7.36 14.30,7.57 14.35,7.78 14.33,7.99 14.31,8.20 14.23,8.39 14.14,8.59 14.00,8.75 13.86,8.90 13.67,9.01 13.49,9.11 13.28,9.15 13.07,9.19 12.86,9.16 12.65,9.13 12.65,9.13 12.65,9.13 9.87,8.44 7.09,7.75 5.90,7.39 4.71,7.03 3.63,6.27 2.56,5.51 1.44,4.66 0.33,3.80 -0.33,2.57 -1.00,1.33 -1.14,1.19 -1.29,1.05 -1.40,0.88 -1.50,0.71 -1.57,0.52 -1.63,0.33 -1.65,0.13 -1.66,-0.06 -1.63,-0.26 -1.60,-0.46 -1.52,-0.64 -1.44,-0.83 -1.32,-0.99 -1.20,-1.15 -1.04,-1.28 -0.89,-1.41 -0.71,-1.49 -0.53,-1.58 -0.33,-1.62 -0.13,-1.66 0.06,-1.65 0.26,-1.64 0.46,-1.59 0.65,-1.53 0.82,-1.43 1.00,-1.33 1.00,-1.33 L 1.00,-1.33 Z"></path></g><g transform="translate(439.79831210399516 221.213105133564) rotate(0 2.582015926592476 1.8559612940773036)" stroke="none"><path fill="#e03131" d="M 1.05,-1.47 Q 1.05,-1.47 3.26,0.41 5.47,2.31 5.62,2.46 5.76,2.61 5.86,2.80 5.95,2.99 5.98,3.20 6.01,3.41 5.97,3.62 5.93,3.83 5.82,4.01 5.72,4.20 5.56,4.34 5.40,4.48 5.20,4.56 5.01,4.65 4.80,4.66 4.58,4.68 4.38,4.63 4.17,4.58 3.99,4.46 3.82,4.35 3.68,4.18 3.55,4.01 3.48,3.81 3.40,3.61 3.40,3.40 3.39,3.19 3.46,2.99 3.52,2.78 3.65,2.61 3.77,2.44 3.94,2.32 4.12,2.19 4.32,2.13 4.52,2.07 4.74,2.08 4.95,2.08 5.15,2.16 5.35,2.23 5.51,2.36 5.68,2.50 5.79,2.68 5.90,2.86 5.95,3.06 6.00,3.27 5.99,3.48 5.97,3.69 5.88,3.89 5.80,4.08 5.66,4.24 5.51,4.40 5.33,4.50 5.14,4.61 4.94,4.65 4.73,4.68 4.52,4.66 4.31,4.63 4.12,4.53 3.93,4.44 3.93,4.44 3.93,4.44 1.43,2.95 -1.05,1.47 -1.21,1.32 -1.37,1.17 -1.49,0.99 -1.61,0.81 -1.69,0.61 -1.76,0.40 -1.78,0.18 -1.81,-0.02 -1.78,-0.24 -1.75,-0.46 -1.67,-0.66 -1.59,-0.86 -1.46,-1.04 -1.33,-1.22 -1.17,-1.36 -1.00,-1.50 -0.81,-1.60 -0.61,-1.70 -0.40,-1.75 -0.18,-1.80 0.02,-1.79 0.24,-1.79 0.45,-1.73 0.66,-1.68 0.86,-1.57 1.05,-1.47 1.05,-1.47 L 1.05,-1.47 Z"></path></g><g transform="translate(450.6101506190155 229.44292772199185) rotate(0 2.2589761614393638 0.9277582759661414)" stroke="none"><path fill="#e03131" d="M 0.60,-1.46 Q 0.60,-1.46 1.84,-0.80 3.09,-0.14 3.27,-0.03 3.45,0.07 3.59,0.23 3.73,0.40 3.80,0.59 3.88,0.79 3.89,1.01 3.90,1.22 3.84,1.42 3.78,1.63 3.66,1.80 3.54,1.98 3.37,2.10 3.20,2.23 2.99,2.29 2.79,2.36 2.58,2.36 2.37,2.36 2.17,2.29 1.97,2.22 1.80,2.09 1.63,1.95 1.51,1.78 1.40,1.60 1.34,1.40 1.29,1.19 1.30,0.98 1.31,0.77 1.39,0.57 1.47,0.37 1.61,0.21 1.75,0.05 1.94,-0.05 2.12,-0.15 2.33,-0.20 2.54,-0.24 2.75,-0.21 2.96,-0.19 3.15,-0.10 3.34,-0.01 3.49,0.13 3.65,0.28 3.74,0.47 3.84,0.66 3.87,0.87 3.91,1.08 3.87,1.29 3.83,1.49 3.73,1.68 3.63,1.87 3.47,2.01 3.32,2.16 3.12,2.24 2.93,2.33 2.72,2.35 2.51,2.37 2.30,2.32 2.09,2.28 2.09,2.28 2.09,2.28 0.74,1.87 -0.60,1.46 -0.76,1.37 -0.93,1.28 -1.07,1.15 -1.21,1.01 -1.32,0.85 -1.42,0.69 -1.48,0.51 -1.55,0.33 -1.56,0.14 -1.58,-0.04 -1.55,-0.23 -1.53,-0.42 -1.45,-0.59 -1.38,-0.77 -1.27,-0.93 -1.15,-1.08 -1.01,-1.20 -0.86,-1.33 -0.69,-1.41 -0.52,-1.49 -0.33,-1.53 -0.14,-1.58 0.04,-1.57 0.23,-1.56 0.41,-1.51 0.60,-1.46 0.60,-1.46 L 0.60,-1.46 Z"></path></g><g transform="translate(352.7453217852276 159.33173538796586) rotate(0 -3.3080443978051335 10.246466603396868)" stroke="none"><path fill="#e03131" d="M 1.39,0.46 Q 1.39,0.46 1.51,2.28 1.63,4.10 1.03,5.97 0.43,7.84 -0.23,9.70 -0.89,11.56 -1.52,13.28 -2.14,15.00 -3.66,17.62 -5.17,20.23 -5.26,20.43 -5.35,20.62 -5.50,20.77 -5.65,20.92 -5.84,21.02 -6.03,21.12 -6.24,21.15 -6.45,21.18 -6.66,21.15 -6.86,21.11 -7.05,21.01 -7.24,20.91 -7.38,20.75 -7.53,20.59 -7.61,20.40 -7.70,20.21 -7.72,20.00 -7.74,19.78 -7.69,19.58 -7.65,19.37 -7.54,19.19 -7.42,19.01 -7.26,18.87 -7.10,18.74 -6.90,18.66 -6.70,18.58 -6.49,18.57 -6.28,18.56 -6.07,18.62 -5.87,18.68 -5.69,18.80 -5.52,18.92 -5.39,19.10 -5.27,19.27 -5.20,19.47 -5.13,19.67 -5.14,19.88 -5.14,20.10 -5.21,20.30 -5.28,20.50 -5.41,20.66 -5.54,20.83 -5.72,20.95 -5.89,21.07 -6.10,21.12 -6.30,21.18 -6.52,21.16 -6.73,21.15 -6.92,21.07 -7.12,20.99 -7.28,20.85 -7.44,20.71 -7.55,20.52 -7.66,20.34 -7.70,20.13 -7.74,19.93 -7.72,19.71 -7.69,19.50 -7.69,19.50 -7.69,19.50 -7.49,16.42 -7.29,13.33 -6.77,11.53 -6.25,9.72 -5.65,7.87 -5.05,6.01 -4.41,4.15 -3.76,2.30 -2.57,0.91 -1.39,-0.46 -1.31,-0.62 -1.23,-0.78 -1.12,-0.91 -1.01,-1.05 -0.87,-1.16 -0.73,-1.26 -0.57,-1.33 -0.40,-1.40 -0.23,-1.43 -0.05,-1.46 0.11,-1.45 0.29,-1.43 0.46,-1.38 0.62,-1.32 0.77,-1.23 0.92,-1.13 1.04,-1.00 1.17,-0.88 1.25,-0.72 1.34,-0.57 1.39,-0.40 1.44,-0.23 1.45,-0.05 1.46,0.11 1.42,0.29 1.39,0.46 1.39,0.46 L 1.39,0.46 Z"></path></g><g transform="translate(340.8044660929354 191.92625933054887) rotate(0 -5.00209338976606 12.142585497045843)" stroke="none"><path fill="#e03131" d="M 2.01,0.57 Q 2.01,0.57 1.64,3.18 1.27,5.78 0.59,7.82 -0.08,9.86 -0.81,11.57 -1.55,13.28 -2.35,14.72 -3.15,16.15 -3.98,17.30 -4.81,18.45 -5.55,19.36 -6.29,20.27 -7.48,22.39 -8.67,24.50 -8.78,24.69 -8.89,24.87 -9.06,25.00 -9.22,25.14 -9.42,25.21 -9.62,25.29 -9.83,25.30 -10.04,25.31 -10.25,25.25 -10.45,25.19 -10.63,25.07 -10.80,24.95 -10.93,24.78 -11.05,24.61 -11.12,24.40 -11.18,24.20 -11.18,23.99 -11.18,23.78 -11.11,23.58 -11.04,23.38 -10.91,23.21 -10.78,23.04 -10.60,22.92 -10.42,22.81 -10.22,22.75 -10.01,22.70 -9.80,22.71 -9.59,22.73 -9.39,22.81 -9.20,22.89 -9.04,23.03 -8.88,23.17 -8.77,23.35 -8.66,23.53 -8.62,23.74 -8.57,23.95 -8.60,24.16 -8.62,24.37 -8.72,24.56 -8.81,24.75 -8.96,24.91 -9.10,25.06 -9.29,25.16 -9.48,25.25 -9.69,25.29 -9.90,25.32 -10.11,25.28 -10.32,25.24 -10.51,25.14 -10.69,25.04 -10.84,24.89 -10.98,24.73 -11.07,24.54 -11.16,24.34 -11.18,24.13 -11.20,23.92 -11.15,23.71 -11.10,23.50 -11.10,23.50 -11.10,23.51 -10.21,21.07 -9.32,18.63 -8.94,17.49 -8.57,16.34 -8.09,15.16 -7.61,13.98 -7.07,12.65 -6.53,11.33 -5.96,9.73 -5.40,8.12 -4.77,6.17 -4.15,4.23 -3.08,1.82 -2.01,-0.57 -1.91,-0.81 -1.82,-1.04 -1.66,-1.24 -1.51,-1.45 -1.32,-1.61 -1.12,-1.77 -0.89,-1.88 -0.66,-1.98 -0.42,-2.04 -0.17,-2.09 0.07,-2.08 0.33,-2.07 0.57,-2.00 0.81,-1.93 1.03,-1.80 1.25,-1.68 1.43,-1.50 1.62,-1.33 1.75,-1.11 1.89,-0.90 1.97,-0.66 2.05,-0.42 2.07,-0.17 2.09,0.07 2.05,0.32 2.01,0.57 2.01,0.57 L 2.01,0.57 Z"></path></g><g transform="translate(329.18665016579644 221.7780846256477) rotate(0 -1.775201352789054 4.114885132911297)" stroke="none"><path fill="#e03131" d="M 1.41,0.65 Q 1.41,0.65 0.88,2.72 0.35,4.78 -0.82,6.35 -2.00,7.92 -2.12,8.10 -2.23,8.28 -2.39,8.42 -2.55,8.55 -2.75,8.63 -2.95,8.71 -3.16,8.72 -3.37,8.73 -3.58,8.67 -3.78,8.61 -3.95,8.49 -4.13,8.37 -4.26,8.20 -4.39,8.04 -4.45,7.83 -4.52,7.63 -4.52,7.42 -4.52,7.21 -4.45,7.01 -4.38,6.80 -4.25,6.64 -4.12,6.47 -3.94,6.35 -3.77,6.23 -3.56,6.17 -3.36,6.12 -3.15,6.13 -2.93,6.14 -2.74,6.22 -2.54,6.30 -2.38,6.44 -2.22,6.58 -2.11,6.76 -2.00,6.95 -1.96,7.15 -1.91,7.36 -1.93,7.57 -1.96,7.78 -2.05,7.98 -2.14,8.17 -2.29,8.32 -2.43,8.47 -2.62,8.57 -2.81,8.67 -3.02,8.71 -3.23,8.74 -3.44,8.70 -3.65,8.67 -3.84,8.57 -4.02,8.47 -4.17,8.31 -4.31,8.16 -4.40,7.96 -4.49,7.77 -4.51,7.56 -4.53,7.35 -4.49,7.14 -4.44,6.93 -4.44,6.93 -4.44,6.93 -4.16,4.88 -3.87,2.82 -2.64,1.08 -1.41,-0.65 -1.31,-0.81 -1.21,-0.97 -1.08,-1.10 -0.95,-1.24 -0.78,-1.33 -0.62,-1.43 -0.44,-1.48 -0.26,-1.54 -0.07,-1.54 0.11,-1.55 0.29,-1.52 0.48,-1.48 0.65,-1.40 0.82,-1.32 0.97,-1.21 1.11,-1.09 1.23,-0.94 1.34,-0.79 1.42,-0.62 1.49,-0.44 1.52,-0.26 1.56,-0.07 1.54,0.11 1.53,0.29 1.47,0.47 1.41,0.65 1.41,0.65 L 1.41,0.65 Z"></path></g><g transform="translate(358.87690325571316 161.99406651370157) rotate(0 1.2504579441848591 13.957944449406398)" stroke="none"><path fill="#e03131" d="M 1.44,-0.18 Q 1.44,-0.18 2.37,2.69 3.30,5.56 3.39,8.27 3.49,10.98 3.43,13.55 3.37,16.12 3.35,18.54 3.33,20.96 3.49,23.75 3.66,26.53 3.65,26.74 3.64,26.96 3.56,27.15 3.48,27.35 3.35,27.51 3.21,27.68 3.03,27.79 2.85,27.90 2.64,27.94 2.43,27.99 2.22,27.97 2.01,27.95 1.82,27.86 1.62,27.77 1.47,27.62 1.31,27.48 1.21,27.29 1.11,27.10 1.08,26.89 1.04,26.69 1.08,26.48 1.11,26.27 1.21,26.08 1.31,25.89 1.46,25.74 1.61,25.60 1.81,25.51 2.00,25.42 2.21,25.39 2.42,25.37 2.63,25.41 2.84,25.46 3.02,25.57 3.20,25.67 3.34,25.84 3.48,26.00 3.56,26.19 3.64,26.39 3.65,26.60 3.66,26.82 3.61,27.02 3.55,27.23 3.43,27.40 3.31,27.58 3.14,27.71 2.98,27.84 2.78,27.91 2.57,27.97 2.36,27.98 2.15,27.98 1.95,27.91 1.75,27.84 1.58,27.71 1.41,27.59 1.29,27.41 1.17,27.24 1.11,27.03 1.05,26.83 1.05,26.83 1.05,26.83 0.58,24.02 0.11,21.22 -0.29,18.78 -0.70,16.34 -1.04,13.81 -1.37,11.27 -1.59,8.74 -1.81,6.21 -1.63,3.19 -1.44,0.18 -1.44,0.00 -1.44,-0.16 -1.40,-0.33 -1.36,-0.50 -1.28,-0.66 -1.20,-0.82 -1.08,-0.95 -0.96,-1.08 -0.82,-1.18 -0.68,-1.28 -0.51,-1.34 -0.35,-1.41 -0.18,-1.43 -0.00,-1.45 0.16,-1.43 0.34,-1.41 0.50,-1.35 0.66,-1.29 0.81,-1.19 0.95,-1.09 1.07,-0.96 1.19,-0.83 1.27,-0.67 1.35,-0.52 1.39,-0.35 1.44,-0.18 1.44,-0.18 L 1.44,-0.18 Z"></path></g><g transform="translate(363.39485557859166 211.5320104417906) rotate(0 1.1696718415939813 12.868247710021251)" stroke="none"><path fill="#e03131" d="M 1.86,-0.26 Q 1.86,-0.26 2.57,2.09 3.28,4.45 3.56,6.45 3.84,8.45 3.96,10.21 4.08,11.97 4.05,13.63 4.02,15.29 3.83,16.88 3.64,18.47 3.45,19.95 3.26,21.43 3.41,23.13 3.56,24.83 3.55,25.04 3.54,25.26 3.46,25.45 3.38,25.65 3.24,25.81 3.10,25.97 2.92,26.08 2.74,26.19 2.53,26.23 2.32,26.28 2.11,26.25 1.90,26.23 1.71,26.14 1.51,26.05 1.36,25.90 1.21,25.76 1.11,25.57 1.01,25.38 0.97,25.17 0.94,24.96 0.98,24.75 1.01,24.54 1.11,24.35 1.21,24.17 1.37,24.02 1.52,23.88 1.72,23.79 1.91,23.70 2.12,23.68 2.33,23.66 2.54,23.70 2.75,23.75 2.93,23.86 3.11,23.97 3.25,24.13 3.38,24.30 3.46,24.49 3.54,24.69 3.55,24.90 3.56,25.12 3.50,25.32 3.44,25.52 3.32,25.70 3.20,25.87 3.03,26.00 2.86,26.13 2.66,26.20 2.46,26.26 2.25,26.26 2.04,26.26 1.84,26.19 1.63,26.12 1.47,26.00 1.30,25.87 1.18,25.69 1.06,25.51 1.00,25.31 0.95,25.10 0.95,25.10 0.95,25.10 0.74,23.34 0.53,21.57 0.18,20.05 -0.16,18.54 -0.41,17.00 -0.65,15.47 -0.80,13.94 -0.96,12.41 -1.13,10.80 -1.30,9.19 -1.59,7.19 -1.89,5.19 -1.87,2.73 -1.86,0.26 -1.86,0.04 -1.87,-0.18 -1.82,-0.40 -1.77,-0.62 -1.67,-0.83 -1.57,-1.03 -1.42,-1.20 -1.27,-1.38 -1.09,-1.51 -0.91,-1.64 -0.70,-1.73 -0.49,-1.81 -0.26,-1.84 -0.04,-1.88 0.18,-1.85 0.40,-1.83 0.62,-1.76 0.83,-1.68 1.02,-1.56 1.21,-1.43 1.37,-1.26 1.52,-1.10 1.63,-0.90 1.74,-0.70 1.80,-0.48 1.86,-0.26 1.86,-0.26 L 1.86,-0.26 Z"></path></g><g transform="translate(367.59050065279143 248.96752647240555) rotate(0 0.5645609112411876 7.624266915930093)" stroke="none"><path fill="#e03131" d="M 1.55,0 Q 1.55,0 2.18,2.08 2.82,4.17 2.89,5.96 2.96,7.75 2.88,9.28 2.80,10.81 2.55,12.54 2.30,14.27 2.30,14.48 2.30,14.70 2.23,14.90 2.16,15.10 2.03,15.27 1.90,15.43 1.72,15.55 1.55,15.67 1.34,15.73 1.14,15.78 0.93,15.77 0.71,15.76 0.52,15.68 0.32,15.60 0.16,15.46 0.00,15.32 -0.10,15.14 -0.21,14.96 -0.26,14.75 -0.30,14.54 -0.28,14.33 -0.25,14.12 -0.16,13.93 -0.07,13.74 0.06,13.58 0.21,13.43 0.40,13.33 0.59,13.23 0.80,13.20 1.01,13.16 1.22,13.20 1.43,13.24 1.61,13.34 1.80,13.44 1.95,13.59 2.09,13.75 2.18,13.94 2.27,14.13 2.29,14.34 2.31,14.55 2.27,14.76 2.22,14.97 2.11,15.15 2.00,15.33 1.84,15.47 1.67,15.61 1.48,15.68 1.28,15.76 1.07,15.77 0.85,15.78 0.65,15.73 0.45,15.67 0.27,15.55 0.09,15.43 -0.02,15.26 -0.15,15.09 -0.22,14.89 -0.29,14.69 -0.29,14.69 -0.29,14.69 -1.09,12.95 -1.90,11.21 -2.25,9.62 -2.59,8.03 -2.71,6.10 -2.82,4.17 -2.18,2.08 -1.55,0 -1.52,-0.18 -1.50,-0.37 -1.43,-0.54 -1.37,-0.72 -1.26,-0.87 -1.16,-1.02 -1.02,-1.15 -0.88,-1.27 -0.71,-1.36 -0.54,-1.45 -0.36,-1.49 -0.18,-1.53 0.00,-1.53 0.18,-1.53 0.36,-1.49 0.55,-1.45 0.71,-1.36 0.88,-1.27 1.02,-1.15 1.16,-1.02 1.26,-0.87 1.37,-0.72 1.43,-0.54 1.50,-0.37 1.52,-0.18 1.55,0.00 1.55,0.00 L 1.55,0 Z"></path></g><g transform="translate(371.14006619668453 283.41756696692084) rotate(0 1.291007963296238 6.978998386005799)" stroke="none"><path fill="#e03131" d="M 1.62,-0.15 Q 1.62,-0.15 2.36,2.28 3.10,4.71 3.32,6.39 3.54,8.08 3.59,10.54 3.64,12.99 3.68,13.20 3.71,13.41 3.67,13.62 3.64,13.83 3.54,14.02 3.44,14.21 3.28,14.35 3.13,14.50 2.93,14.58 2.74,14.67 2.53,14.69 2.32,14.72 2.11,14.67 1.90,14.62 1.72,14.51 1.54,14.40 1.40,14.24 1.27,14.08 1.19,13.88 1.11,13.68 1.10,13.47 1.09,13.26 1.15,13.05 1.21,12.85 1.33,12.67 1.45,12.50 1.62,12.37 1.79,12.24 1.99,12.18 2.19,12.11 2.40,12.11 2.62,12.11 2.82,12.18 3.02,12.25 3.19,12.38 3.35,12.51 3.47,12.68 3.59,12.86 3.65,13.07 3.70,13.27 3.69,13.48 3.68,13.70 3.60,13.89 3.52,14.09 3.38,14.25 3.24,14.41 3.06,14.52 2.88,14.63 2.67,14.67 2.46,14.72 2.25,14.69 2.04,14.67 1.85,14.58 1.65,14.49 1.50,14.34 1.35,14.19 1.25,14.01 1.15,13.82 1.15,13.82 1.15,13.82 -0.20,11.33 -1.57,8.84 -1.87,7.02 -2.18,5.21 -1.90,2.68 -1.62,0.15 -1.62,-0.04 -1.61,-0.24 -1.56,-0.43 -1.51,-0.62 -1.41,-0.79 -1.31,-0.96 -1.18,-1.10 -1.04,-1.25 -0.88,-1.36 -0.71,-1.46 -0.53,-1.53 -0.34,-1.59 -0.15,-1.61 0.04,-1.63 0.24,-1.60 0.43,-1.57 0.61,-1.50 0.79,-1.42 0.95,-1.30 1.11,-1.19 1.24,-1.04 1.37,-0.89 1.45,-0.71 1.54,-0.53 1.58,-0.34 1.62,-0.15 1.62,-0.15 L 1.62,-0.15 Z"></path></g><g transform="translate(377.2716476671701 311.575395592664) rotate(0 0.6858970329435579 4.356380117696631)" stroke="none"><path fill="#e03131" d="M 1.75,-0.16 Q 1.75,-0.16 2.45,1.70 3.15,3.58 2.84,5.75 2.52,7.93 2.54,8.14 2.56,8.35 2.51,8.56 2.46,8.76 2.35,8.94 2.24,9.13 2.08,9.26 1.92,9.40 1.72,9.47 1.52,9.55 1.31,9.56 1.10,9.57 0.89,9.51 0.69,9.46 0.51,9.33 0.34,9.21 0.21,9.04 0.08,8.87 0.02,8.67 -0.04,8.47 -0.04,8.26 -0.04,8.05 0.02,7.84 0.09,7.64 0.22,7.48 0.35,7.31 0.53,7.19 0.71,7.07 0.91,7.02 1.12,6.96 1.33,6.97 1.54,6.99 1.74,7.07 1.93,7.15 2.09,7.29 2.26,7.42 2.36,7.61 2.47,7.79 2.52,8.00 2.56,8.21 2.54,8.42 2.51,8.63 2.42,8.82 2.33,9.01 2.18,9.17 2.03,9.32 1.85,9.42 1.66,9.52 1.45,9.55 1.24,9.58 1.03,9.54 0.82,9.51 0.63,9.41 0.45,9.31 0.30,9.15 0.16,9.00 0.07,8.80 -0.01,8.61 -0.01,8.61 -0.01,8.61 -1.21,6.36 -2.41,4.11 -2.08,2.14 -1.75,0.16 -1.75,-0.04 -1.74,-0.25 -1.69,-0.46 -1.63,-0.66 -1.53,-0.85 -1.42,-1.03 -1.28,-1.19 -1.13,-1.34 -0.95,-1.46 -0.78,-1.58 -0.58,-1.65 -0.37,-1.72 -0.16,-1.74 0.04,-1.76 0.25,-1.73 0.46,-1.70 0.66,-1.62 0.85,-1.54 1.03,-1.41 1.20,-1.29 1.34,-1.12 1.47,-0.96 1.57,-0.77 1.66,-0.58 1.71,-0.37 1.75,-0.16 1.75,-0.16 L 1.75,-0.16 Z"></path></g><g transform="translate(239.79264184047133 67.84194510714792) rotate(0 206.01625570924182 148.28948395398123)" stroke="none"><path fill="#ffffff" d="M 1.10,1.50 Q 1.10,1.50 -0.65,3.09 -2.41,4.67 -4.38,6.26 -6.35,7.85 -8.31,9.55 -10.27,11.25 -12.48,13.44 -14.69,15.63 -16.99,18.37 -19.30,21.12 -21.59,24.37 -23.87,27.62 -26.09,31.25 -28.31,34.88 -30.49,38.75 -32.67,42.61 -34.87,46.57 -37.07,50.53 -39.19,54.63 -41.32,58.73 -43.41,63.29 -45.51,67.85 -47.32,72.93 -49.14,78.02 -50.77,83.96 -52.40,89.90 -53.78,96.37 -55.16,102.84 -56.25,108.83 -57.34,114.82 -58.16,120.37 -58.98,125.92 -59.60,131.47 -60.22,137.01 -60.67,143.14 -61.13,149.26 -61.34,155.25 -61.55,161.24 -61.48,167.33 -61.40,173.41 -61.10,178.99 -60.79,184.58 -60.14,189.54 -59.49,194.50 -58.58,199.10 -57.67,203.70 -56.44,208.30 -55.21,212.90 -53.65,217.80 -52.10,222.69 -50.42,227.44 -48.75,232.19 -46.85,236.86 -44.95,241.54 -42.90,245.93 -40.84,250.32 -38.70,254.31 -36.55,258.31 -34.31,261.89 -32.07,265.47 -29.67,268.87 -27.26,272.27 -24.60,275.51 -21.94,278.74 -18.86,281.81 -15.77,284.88 -12.44,287.57 -9.10,290.27 -5.31,292.75 -1.52,295.23 2.23,297.41 6.00,299.59 10.34,301.82 14.67,304.05 19.43,306.17 24.19,308.30 29.08,310.18 33.98,312.07 38.45,313.55 42.92,315.03 47.70,316.67 52.49,318.32 57.63,320.03 62.77,321.74 67.94,323.28 73.12,324.83 77.93,326.15 82.73,327.48 87.91,328.78 93.08,330.08 98.95,331.36 104.82,332.64 110.57,333.84 116.32,335.04 121.82,336.07 127.32,337.11 133.60,337.98 139.87,338.85 146.01,339.54 152.15,340.23 157.78,340.83 163.41,341.43 169.85,342.05 176.29,342.67 182.89,343.14 189.48,343.61 195.40,343.93 201.32,344.24 206.76,344.49 212.20,344.74 218.17,344.99 224.15,345.23 230.19,345.48 236.23,345.72 241.92,345.82 247.60,345.92 254.46,345.71 261.33,345.50 267.93,345.06 274.53,344.63 280.27,344.05 286.01,343.48 291.47,342.66 296.93,341.85 306.38,339.27 315.83,336.69 323.69,334.05 331.54,331.42 338.58,328.71 345.62,326.00 351.63,323.28 357.64,320.56 362.80,317.71 367.95,314.87 373.26,311.53 378.57,308.19 383.85,304.48 389.13,300.77 393.77,297.02 398.40,293.27 402.66,289.32 406.92,285.36 411.18,280.94 415.44,276.51 419.90,271.30 424.35,266.08 428.20,260.93 432.04,255.78 435.31,250.71 438.57,245.65 441.57,240.15 444.56,234.66 447.39,229.08 450.22,223.50 452.91,217.64 455.60,211.79 458.08,205.75 460.55,199.71 462.80,193.86 465.06,188.01 466.94,182.66 468.81,177.31 470.08,172.34 471.35,167.37 472.06,162.52 472.76,157.68 472.99,153.03 473.21,148.38 473.13,143.62 473.04,138.86 472.62,133.78 472.20,128.69 471.50,123.74 470.80,118.78 469.77,114.09 468.75,109.41 467.30,104.78 465.85,100.15 463.97,95.40 462.08,90.64 460.09,86.31 458.10,81.99 455.94,77.60 453.78,73.22 451.64,69.05 449.50,64.87 447.96,61.91 446.42,58.95 443.68,54.32 440.94,49.69 438.18,45.77 435.43,41.84 432.36,38.39 429.29,34.93 426.12,31.81 422.94,28.70 419.61,25.64 416.28,22.58 412.91,19.65 409.53,16.71 405.66,13.68 401.78,10.65 397.63,8.06 393.49,5.46 389.05,3.21 384.60,0.96 380.29,-1.01 375.97,-2.99 371.15,-5.13 366.34,-7.28 361.08,-9.40 355.82,-11.52 350.63,-13.38 345.44,-15.24 340.49,-16.88 335.53,-18.52 330.09,-20.27 324.65,-22.01 318.90,-23.74 313.15,-25.47 307.68,-26.99 302.20,-28.50 296.33,-30.02 290.47,-31.55 283.41,-32.93 276.35,-34.32 269.74,-35.42 263.13,-36.52 257.32,-37.51 251.52,-38.49 245.61,-39.51 239.71,-40.54 234.06,-41.48 228.41,-42.42 223.29,-43.34 218.17,-44.25 213.00,-45.15 207.83,-46.04 202.13,-46.78 196.43,-47.52 190.97,-47.99 185.51,-48.47 180.09,-48.76 174.67,-49.06 168.62,-49.18 162.57,-49.31 156.57,-49.31 150.58,-49.31 145.21,-49.18 139.85,-49.05 134.81,-48.74 129.76,-48.42 124.85,-47.95 119.94,-47.47 115.55,-46.95 111.15,-46.43 107.15,-45.81 103.14,-45.20 99.69,-44.47 96.23,-43.74 92.85,-42.82 89.47,-41.90 86.18,-40.87 82.89,-39.84 79.62,-38.73 76.36,-37.63 73.24,-36.51 70.13,-35.40 67.13,-34.26 64.14,-33.13 60.28,-31.40 56.42,-29.68 52.48,-27.75 48.54,-25.82 45.19,-24.19 41.83,-22.57 38.82,-21.14 35.82,-19.70 33.06,-18.43 30.30,-17.16 27.84,-16.06 25.38,-14.96 23.24,-13.95 21.10,-12.95 19.23,-12.00 17.35,-11.06 15.67,-10.13 14.00,-9.20 12.38,-8.23 10.75,-7.27 9.19,-6.24 7.62,-5.21 6.21,-4.07 4.81,-2.93 3.48,-1.65 2.16,-0.38 0.90,0.98 -0.34,2.34 -1.51,3.71 -2.68,5.08 -3.79,6.41 -4.89,7.74 -5.88,8.97 -6.87,10.21 -7.78,11.32 -8.68,12.44 -9.49,13.32 -10.30,14.21 -12.05,15.05 -13.80,15.90 -13.93,16.06 -14.07,16.22 -14.25,16.33 -14.44,16.44 -14.64,16.49 -14.85,16.53 -15.06,16.51 -15.27,16.48 -15.47,16.39 -15.66,16.31 -15.81,16.16 -15.97,16.01 -16.07,15.82 -16.16,15.64 -16.20,15.43 -16.23,15.22 -16.20,15.01 -16.16,14.80 -16.06,14.61 -15.96,14.42 -15.81,14.28 -15.65,14.13 -15.46,14.04 -15.27,13.95 -15.06,13.93 -14.85,13.91 -14.64,13.95 -14.43,14.00 -14.25,14.11 -14.07,14.22 -13.93,14.38 -13.79,14.54 -13.71,14.74 -13.64,14.94 -13.63,15.15 -13.61,15.36 -13.67,15.57 -13.73,15.77 -13.85,15.95 -13.97,16.12 -14.14,16.25 -14.31,16.38 -14.51,16.45 -14.71,16.52 -14.92,16.52 -15.13,16.52 -15.34,16.45 -15.54,16.38 -15.71,16.25 -15.88,16.12 -15.99,15.94 -16.11,15.77 -16.17,15.56 -16.23,15.36 -16.21,15.15 -16.20,14.93 -16.12,14.74 -16.04,14.54 -16.04,14.54 -16.04,14.54 -15.96,12.35 -15.87,10.16 -15.18,8.98 -14.49,7.80 -13.61,6.68 -12.73,5.55 -11.69,4.25 -10.66,2.95 -9.53,1.58 -8.39,0.21 -7.13,-1.26 -5.87,-2.75 -4.45,-4.28 -3.04,-5.81 -1.46,-7.31 0.10,-8.80 1.80,-10.15 3.50,-11.50 5.21,-12.62 6.92,-13.73 8.63,-14.75 10.35,-15.76 12.16,-16.77 13.97,-17.77 15.94,-18.76 17.91,-19.75 20.11,-20.78 22.32,-21.82 24.74,-22.90 27.16,-23.98 29.87,-25.23 32.59,-26.47 35.58,-27.90 38.57,-29.33 41.91,-30.94 45.25,-32.56 49.31,-34.54 53.37,-36.53 57.42,-38.33 61.47,-40.14 64.54,-41.30 67.60,-42.46 70.78,-43.60 73.95,-44.74 77.30,-45.87 80.65,-47.00 84.08,-48.08 87.51,-49.15 91.09,-50.12 94.68,-51.09 98.35,-51.86 102.01,-52.63 106.14,-53.26 110.26,-53.88 114.74,-54.42 119.22,-54.95 124.26,-55.44 129.30,-55.92 134.48,-56.24 139.66,-56.55 145.12,-56.69 150.59,-56.83 156.66,-56.82 162.72,-56.81 168.90,-56.68 175.07,-56.55 180.62,-56.25 186.17,-55.95 191.78,-55.46 197.40,-54.97 203.26,-54.20 209.11,-53.44 214.30,-52.54 219.49,-51.64 224.57,-50.73 229.64,-49.82 235.31,-48.87 240.99,-47.93 246.88,-46.91 252.77,-45.89 258.57,-44.91 264.36,-43.92 271.08,-42.80 277.80,-41.68 285.08,-40.23 292.35,-38.79 298.27,-37.25 304.20,-35.71 309.75,-34.17 315.31,-32.63 321.12,-30.88 326.93,-29.13 332.41,-27.37 337.89,-25.61 342.93,-23.94 347.96,-22.26 353.28,-20.35 358.60,-18.44 363.99,-16.27 369.38,-14.09 374.23,-11.93 379.08,-9.77 383.53,-7.73 387.99,-5.68 392.72,-3.26 397.46,-0.85 401.92,1.96 406.37,4.77 410.40,7.93 414.43,11.08 417.88,14.08 421.32,17.08 424.75,20.23 428.18,23.38 431.53,26.68 434.88,29.99 438.21,33.77 441.54,37.56 444.45,41.73 447.36,45.89 450.20,50.70 453.04,55.51 454.58,58.49 456.13,61.46 458.30,65.69 460.48,69.92 462.68,74.40 464.89,78.88 466.95,83.39 469.02,87.90 470.99,92.92 472.97,97.94 474.50,102.88 476.03,107.82 477.10,112.78 478.17,117.74 478.90,122.91 479.63,128.08 480.06,133.41 480.50,138.74 480.58,143.75 480.65,148.76 480.39,153.76 480.12,158.77 479.34,163.99 478.55,169.21 477.19,174.49 475.83,179.77 473.92,185.23 472.01,190.68 469.73,196.61 467.45,202.54 464.92,208.72 462.38,214.91 459.63,220.89 456.88,226.87 453.99,232.56 451.11,238.24 447.98,243.96 444.84,249.69 441.43,254.97 438.02,260.25 434.03,265.59 430.03,270.93 425.42,276.31 420.82,281.69 416.41,286.27 412.00,290.84 407.55,294.97 403.10,299.09 398.27,302.99 393.43,306.89 387.99,310.71 382.56,314.52 377.06,317.97 371.57,321.43 366.15,324.41 360.73,327.39 354.52,330.19 348.31,333.00 341.12,335.76 333.93,338.53 325.86,341.23 317.80,343.93 307.92,346.60 298.04,349.27 292.40,350.11 286.76,350.94 280.89,351.53 275.02,352.12 268.29,352.56 261.56,353.00 254.51,353.21 247.46,353.42 241.70,353.31 235.93,353.21 229.89,352.96 223.84,352.72 217.85,352.47 211.86,352.22 206.39,351.97 200.92,351.72 194.94,351.40 188.95,351.08 182.26,350.60 175.57,350.12 169.10,349.49 162.62,348.86 156.96,348.26 151.31,347.66 145.08,346.95 138.85,346.24 132.39,345.34 125.94,344.44 120.37,343.39 114.80,342.34 109.01,341.13 103.23,339.92 97.24,338.61 91.26,337.29 86.01,335.97 80.75,334.65 75.87,333.30 70.99,331.95 65.71,330.36 60.42,328.78 55.25,327.05 50.08,325.33 45.33,323.69 40.58,322.06 35.95,320.51 31.32,318.97 26.24,317.01 21.17,315.05 16.23,312.84 11.29,310.62 6.79,308.30 2.29,305.98 -1.64,303.68 -5.58,301.39 -9.66,298.69 -13.74,295.98 -17.35,293.03 -20.97,290.08 -24.29,286.74 -27.62,283.40 -30.44,279.95 -33.26,276.51 -35.77,272.93 -38.29,269.35 -40.65,265.56 -43.01,261.77 -45.24,257.60 -47.47,253.42 -49.60,248.85 -51.73,244.28 -53.69,239.45 -55.64,234.61 -57.35,229.75 -59.05,224.89 -60.65,219.83 -62.25,214.78 -63.53,209.94 -64.81,205.11 -65.76,200.27 -66.71,195.44 -67.39,190.20 -68.06,184.97 -68.37,179.23 -68.68,173.49 -68.74,167.23 -68.79,160.97 -68.55,154.84 -68.31,148.70 -67.81,142.45 -67.30,136.21 -66.65,130.54 -65.99,124.87 -65.12,119.21 -64.26,113.55 -63.13,107.46 -62.00,101.37 -60.55,94.71 -59.11,88.04 -57.37,81.85 -55.63,75.66 -53.67,70.32 -51.70,64.97 -49.49,60.28 -47.27,55.58 -45.04,51.44 -42.81,47.30 -40.54,43.33 -38.27,39.35 -35.95,35.47 -33.63,31.59 -31.25,27.80 -28.88,24.01 -26.36,20.60 -23.84,17.19 -21.28,14.31 -18.72,11.44 -16.24,9.13 -13.77,6.82 -11.58,5.26 -9.40,3.69 -7.29,2.29 -5.19,0.88 -3.14,-0.31 -1.10,-1.50 -0.90,-1.61 -0.71,-1.72 -0.49,-1.78 -0.27,-1.84 -0.05,-1.85 0.17,-1.86 0.39,-1.81 0.61,-1.76 0.81,-1.66 1.01,-1.56 1.19,-1.42 1.36,-1.27 1.49,-1.09 1.63,-0.91 1.71,-0.70 1.80,-0.49 1.83,-0.27 1.86,-0.05 1.84,0.17 1.82,0.39 1.75,0.61 1.67,0.82 1.55,1.01 1.43,1.20 1.26,1.35 1.10,1.50 1.10,1.50 L 1.10,1.50 Z"></path></g><g transform="translate(54.13969421386719 56.727935791015625) rotate(0 -18.11695098876953 -19.481842041015625)" stroke="none"><path fill="#ffffff" d="M 1.26,2.27 Q 1.26,2.27 -0.44,3.78 -2.16,5.30 -5.61,6.60 -9.05,7.90 -14.09,8.93 -19.13,9.96 -24.18,10.07 -29.24,10.18 -33.35,9.16 -37.46,8.15 -40.54,5.41 -43.62,2.67 -44.45,-2.38 -45.28,-7.44 -43.25,-13.24 -41.22,-19.03 -37.41,-24.27 -33.60,-29.50 -28.60,-33.65 -23.60,-37.79 -18.51,-40.67 -13.41,-43.55 -9.09,-45.35 -4.77,-47.14 -1.97,-48.05 0.81,-48.96 2.59,-49.36 4.37,-49.77 5.15,-49.69 5.94,-49.61 6.37,-49.65 6.80,-49.69 7.22,-49.63 7.64,-49.58 8.04,-49.42 8.44,-49.26 8.79,-49.01 9.14,-48.76 9.41,-48.43 9.69,-48.11 9.88,-47.72 10.08,-47.34 10.17,-46.92 10.27,-46.51 10.26,-46.08 10.25,-45.65 10.14,-45.24 10.03,-44.82 9.83,-44.45 9.62,-44.07 9.33,-43.76 9.04,-43.44 8.68,-43.20 8.33,-42.97 7.92,-42.82 7.52,-42.68 6.78,-42.75 6.03,-42.82 5.86,-42.70 5.69,-42.57 5.49,-42.50 5.29,-42.43 5.08,-42.43 4.86,-42.44 4.66,-42.50 4.46,-42.57 4.29,-42.70 4.12,-42.83 4.01,-43.01 3.89,-43.18 3.83,-43.39 3.77,-43.59 3.79,-43.81 3.80,-44.02 3.88,-44.22 3.96,-44.41 4.10,-44.57 4.24,-44.74 4.42,-44.84 4.60,-44.95 4.81,-45.00 5.02,-45.04 5.23,-45.02 5.44,-44.99 5.63,-44.90 5.82,-44.81 5.98,-44.67 6.13,-44.52 6.23,-44.33 6.33,-44.14 6.36,-43.93 6.39,-43.72 6.36,-43.52 6.32,-43.31 6.22,-43.12 6.12,-42.93 5.97,-42.79 5.81,-42.64 5.62,-42.55 5.43,-42.46 5.22,-42.44 5.00,-42.42 4.80,-42.47 4.59,-42.51 4.41,-42.62 4.23,-42.73 4.09,-42.90 3.95,-43.06 3.87,-43.26 3.80,-43.45 3.79,-43.67 3.78,-43.88 3.83,-44.08 3.89,-44.29 4.01,-44.46 4.13,-44.64 4.13,-44.64 4.13,-44.64 5.04,-47.12 5.94,-49.61 6.37,-49.65 6.80,-49.69 7.22,-49.63 7.64,-49.58 8.04,-49.42 8.44,-49.26 8.79,-49.01 9.14,-48.76 9.41,-48.43 9.69,-48.11 9.88,-47.72 10.08,-47.34 10.17,-46.92 10.27,-46.51 10.26,-46.08 10.25,-45.65 10.14,-45.24 10.03,-44.82 9.83,-44.45 9.62,-44.07 9.33,-43.76 9.04,-43.44 8.68,-43.20 8.33,-42.97 7.92,-42.82 7.52,-42.68 6.73,-42.64 5.94,-42.60 4.51,-42.27 3.08,-41.95 0.55,-41.14 -1.96,-40.33 -5.89,-38.71 -9.82,-37.10 -14.39,-34.58 -18.97,-32.06 -23.36,-28.57 -27.74,-25.08 -31.06,-20.71 -34.39,-16.34 -36.20,-12.08 -38.01,-7.82 -38.02,-4.68 -38.04,-1.55 -36.64,-0.16 -35.25,1.22 -32.27,2.03 -29.29,2.84 -24.93,2.79 -20.56,2.73 -16.03,1.85 -11.51,0.96 -8.57,-0.00 -5.62,-0.97 -3.44,-1.62 -1.26,-2.27 -0.97,-2.39 -0.68,-2.51 -0.37,-2.55 -0.06,-2.60 0.25,-2.57 0.56,-2.54 0.85,-2.43 1.15,-2.33 1.41,-2.16 1.67,-1.98 1.89,-1.75 2.10,-1.52 2.25,-1.25 2.41,-0.98 2.49,-0.67 2.57,-0.37 2.58,-0.06 2.58,0.25 2.52,0.55 2.45,0.86 2.31,1.14 2.17,1.42 1.97,1.66 1.77,1.90 1.51,2.09 1.26,2.27 1.26,2.27 L 1.26,2.27 Z"></path></g><g transform="translate(84.39750671386719 35.45771789550781) rotate(0 2.6116790771484375 16.96416473388672)" stroke="none"><path fill="#ffffff" d="M 2.38,-0.15 Q 2.38,-0.15 3.02,2.09 3.67,4.35 3.91,7.71 4.16,11.08 4.29,14.54 4.43,18.00 4.54,20.78 4.64,23.56 4.75,25.53 4.86,27.51 4.91,29.04 4.96,30.57 4.70,32.02 4.44,33.48 2.91,34.79 1.37,36.09 -0.30,35.98 -1.98,35.87 -3.47,35.30 -4.96,34.73 -6.28,34.42 -7.61,34.11 -8.74,34.09 -9.86,34.07 -10.58,34.44 -11.30,34.80 -11.74,34.75 -12.17,34.70 -12.59,34.54 -13.00,34.39 -13.36,34.14 -13.72,33.89 -14.02,33.56 -14.31,33.23 -14.52,32.84 -14.72,32.45 -14.83,32.02 -14.94,31.60 -14.94,31.16 -14.94,30.72 -14.83,30.29 -14.73,29.86 -14.53,29.47 -14.32,29.08 -14.03,28.75 -13.74,28.42 -13.38,28.17 -13.02,27.92 -12.60,27.76 -12.19,27.60 -11.76,27.55 -11.32,27.49 -9.06,27.27 -6.79,27.05 -3.82,26.60 -0.85,26.14 2.05,25.55 4.96,24.97 7.41,24.25 9.86,23.53 11.42,22.91 12.98,22.28 14.00,21.23 15.02,20.18 15.17,20.13 15.32,20.09 15.48,20.08 15.64,20.07 15.79,20.10 15.95,20.14 16.09,20.20 16.23,20.27 16.36,20.37 16.48,20.47 16.58,20.60 16.67,20.72 16.73,20.87 16.80,21.02 16.82,21.17 16.85,21.33 16.83,21.49 16.82,21.64 16.77,21.79 16.72,21.94 16.64,22.08 16.55,22.21 16.44,22.32 16.32,22.43 16.19,22.51 16.05,22.59 15.14,22.08 14.23,21.56 14.24,21.35 14.24,21.14 14.32,20.94 14.39,20.74 14.52,20.57 14.66,20.41 14.84,20.29 15.01,20.18 15.22,20.13 15.43,20.07 15.64,20.09 15.85,20.11 16.05,20.19 16.24,20.28 16.40,20.42 16.56,20.56 16.66,20.74 16.77,20.93 16.81,21.14 16.85,21.35 16.82,21.56 16.79,21.77 16.70,21.96 16.60,22.15 16.45,22.30 16.30,22.45 16.11,22.54 15.92,22.64 15.71,22.67 15.50,22.70 15.29,22.66 15.08,22.62 14.90,22.51 14.71,22.41 14.57,22.25 14.43,22.09 14.34,21.90 14.26,21.70 14.24,21.49 14.23,21.28 14.28,21.07 14.33,20.86 14.44,20.69 14.56,20.51 14.72,20.37 14.89,20.24 15.09,20.17 15.29,20.09 15.50,20.09 15.71,20.08 15.91,20.14 16.12,20.21 16.29,20.33 16.46,20.45 16.59,20.63 16.71,20.80 15.86,20.49 15.02,20.18 15.17,20.13 15.32,20.09 15.48,20.08 15.64,20.07 15.79,20.10 15.95,20.14 16.09,20.20 16.23,20.27 16.36,20.37 16.48,20.47 16.58,20.60 16.67,20.72 16.73,20.87 16.80,21.02 16.82,21.17 16.85,21.33 16.83,21.49 16.82,21.64 16.77,21.79 16.72,21.94 16.64,22.08 16.55,22.21 16.44,22.32 16.32,22.43 16.19,22.51 16.05,22.59 16.28,25.77 16.50,28.95 14.27,29.96 12.03,30.96 9.24,31.77 6.45,32.58 3.33,33.17 0.21,33.77 -3.03,34.18 -6.28,34.59 -8.79,34.70 -11.30,34.80 -11.74,34.75 -12.17,34.70 -12.59,34.54 -13.00,34.39 -13.36,34.14 -13.72,33.89 -14.02,33.56 -14.31,33.23 -14.52,32.84 -14.72,32.45 -14.83,32.03 -14.94,31.60 -14.94,31.16 -14.94,30.72 -14.83,30.29 -14.73,29.86 -14.53,29.47 -14.32,29.08 -14.03,28.75 -13.74,28.42 -13.38,28.17 -13.02,27.92 -12.60,27.76 -12.19,27.60 -11.76,27.55 -11.32,27.49 -12.07,28.01 -12.82,28.52 -10.99,28.18 -9.15,27.83 -7.61,28.12 -6.08,28.41 -4.24,29.63 -2.41,30.86 -2.48,29.38 -2.54,27.90 -2.65,25.86 -2.76,23.81 -2.85,21.01 -2.93,18.21 -2.98,14.78 -3.04,11.36 -3.06,8.07 -3.07,4.79 -2.73,2.47 -2.38,0.15 -2.36,-0.13 -2.35,-0.41 -2.26,-0.69 -2.18,-0.97 -2.03,-1.21 -1.88,-1.46 -1.68,-1.66 -1.48,-1.87 -1.23,-2.02 -0.98,-2.17 -0.71,-2.25 -0.44,-2.34 -0.15,-2.36 0.13,-2.38 0.41,-2.33 0.70,-2.28 0.96,-2.16 1.22,-2.04 1.45,-1.87 1.68,-1.69 1.85,-1.47 2.03,-1.24 2.15,-0.98 2.27,-0.72 2.32,-0.43 2.38,-0.15 2.38,-0.15 L 2.38,-0.15 Z"></path></g><g transform="translate(73.90348815917969 32.39936828613281) rotate(0 13.08203125 -3.01171875)" stroke="none"><path fill="#ffffff" d="M -0.95,-2.94 Q -0.95,-2.94 1.37,-4.02 3.69,-5.10 6.72,-5.78 9.75,-6.46 12.39,-6.88 15.03,-7.31 16.99,-7.55 18.96,-7.80 20.43,-7.95 21.89,-8.10 23.61,-7.59 25.33,-7.09 25.49,-7.08 25.65,-7.08 25.80,-7.04 25.95,-7.00 26.09,-6.93 26.23,-6.85 26.35,-6.75 26.46,-6.64 26.55,-6.51 26.64,-6.38 26.70,-6.23 26.75,-6.08 26.77,-5.92 26.78,-5.76 26.76,-5.61 26.74,-5.45 26.68,-5.30 26.63,-5.16 26.53,-5.03 26.44,-4.90 26.32,-4.79 26.20,-4.69 26.06,-4.62 25.92,-4.55 25.77,-4.51 25.61,-4.48 25.27,-4.53 24.92,-4.59 24.75,-4.71 24.57,-4.83 24.44,-4.99 24.31,-5.16 24.24,-5.37 24.17,-5.57 24.17,-5.78 24.17,-5.99 24.24,-6.19 24.31,-6.39 24.44,-6.56 24.57,-6.73 24.74,-6.85 24.92,-6.97 25.12,-7.03 25.33,-7.09 25.54,-7.08 25.75,-7.06 25.95,-6.99 26.15,-6.91 26.31,-6.77 26.47,-6.63 26.58,-6.45 26.69,-6.27 26.74,-6.06 26.78,-5.85 26.76,-5.64 26.74,-5.43 26.65,-5.24 26.56,-5.05 26.41,-4.89 26.27,-4.74 26.08,-4.64 25.89,-4.54 25.68,-4.50 25.47,-4.47 25.26,-4.50 25.05,-4.54 24.87,-4.64 24.68,-4.73 24.53,-4.89 24.38,-5.04 24.30,-5.24 24.21,-5.43 24.18,-5.64 24.16,-5.85 24.20,-6.06 24.25,-6.27 24.36,-6.45 24.47,-6.63 24.63,-6.77 24.79,-6.91 24.99,-6.98 25.19,-7.06 25.40,-7.08 25.61,-7.09 25.47,-7.09 25.33,-7.09 25.49,-7.08 25.65,-7.08 25.80,-7.04 25.95,-7.00 26.09,-6.93 26.23,-6.85 26.35,-6.75 26.46,-6.64 26.55,-6.51 26.64,-6.38 26.70,-6.23 26.75,-6.08 26.77,-5.92 26.78,-5.76 26.76,-5.61 26.74,-5.45 26.68,-5.30 26.63,-5.16 26.53,-5.03 26.44,-4.90 26.32,-4.79 26.20,-4.69 26.06,-4.62 25.92,-4.55 25.77,-4.51 25.61,-4.48 24.16,-2.52 22.71,-0.56 21.31,-0.40 19.90,-0.24 18.06,-0.01 16.21,0.21 13.75,0.58 11.29,0.96 8.64,1.46 5.98,1.96 3.47,2.45 0.95,2.94 0.58,3.01 0.22,3.08 -0.15,3.06 -0.52,3.05 -0.88,2.94 -1.23,2.83 -1.56,2.64 -1.88,2.45 -2.14,2.19 -2.41,1.93 -2.61,1.61 -2.80,1.30 -2.92,0.94 -3.03,0.59 -3.06,0.21 -3.09,-0.15 -3.02,-0.51 -2.96,-0.88 -2.81,-1.22 -2.66,-1.57 -2.43,-1.86 -2.21,-2.16 -1.92,-2.39 -1.63,-2.63 -1.29,-2.78 -0.95,-2.94 -0.95,-2.94 L -0.95,-2.94 Z"></path></g><g transform="translate(45.10478210449219 82.93841552734375) rotate(0 21.22264862060547 66.42141723632812)" stroke="none"><path fill="#ffffff" d="M 1.80,-0.80 Q 1.80,-0.80 3.35,1.42 4.90,3.64 5.53,9.05 6.17,14.46 5.76,21.83 5.35,29.19 3.83,38.17 2.30,47.16 -0.04,57.32 -2.40,67.47 -5.07,77.56 -7.73,87.65 -9.70,95.79 -11.67,103.93 -12.75,109.94 -13.83,115.95 -13.96,119.66 -14.09,123.37 -13.28,124.97 -12.46,126.57 -10.24,127.15 -8.03,127.74 -3.73,127.58 0.57,127.42 6.17,126.71 11.77,126.00 17.92,125.38 24.06,124.76 29.97,124.64 35.88,124.51 40.76,124.74 45.64,124.97 49.22,125.22 52.80,125.47 55.27,125.56 57.73,125.65 57.87,126.28 58.00,126.91 58.16,126.93 58.32,126.96 58.46,127.02 58.61,127.08 58.74,127.17 58.86,127.27 58.96,127.39 59.06,127.51 59.13,127.65 59.20,127.79 59.24,127.95 59.27,128.10 59.26,128.26 59.26,128.42 59.22,128.57 59.17,128.73 59.09,128.86 59.02,129.00 58.91,129.12 58.80,129.23 58.67,129.32 58.53,129.40 58.38,129.45 58.23,129.51 58.08,129.52 57.92,129.53 57.41,129.26 56.89,128.99 56.80,128.80 56.71,128.61 56.68,128.40 56.65,128.19 56.69,127.98 56.73,127.77 56.83,127.58 56.94,127.40 57.09,127.26 57.25,127.11 57.45,127.03 57.64,126.95 57.85,126.93 58.07,126.91 58.27,126.96 58.48,127.01 58.66,127.13 58.84,127.24 58.97,127.41 59.10,127.57 59.18,127.77 59.25,127.97 59.26,128.18 59.26,128.40 59.20,128.60 59.14,128.80 59.01,128.98 58.89,129.15 58.72,129.27 58.54,129.40 58.34,129.46 58.14,129.52 57.93,129.52 57.71,129.51 57.51,129.44 57.31,129.36 57.15,129.23 56.98,129.10 56.87,128.92 56.75,128.74 56.70,128.53 56.65,128.33 56.67,128.12 56.69,127.90 56.77,127.71 56.85,127.51 57.00,127.36 57.14,127.20 57.32,127.09 57.51,126.99 57.72,126.95 57.92,126.91 58.13,126.94 58.35,126.96 58.54,127.06 58.73,127.15 58.36,127.03 58.00,126.91 58.16,126.93 58.32,126.96 58.46,127.02 58.61,127.08 58.74,127.17 58.86,127.27 58.96,127.39 59.06,127.51 59.13,127.65 59.20,127.79 59.24,127.95 59.27,128.10 59.26,128.26 59.26,128.42 59.22,128.57 59.17,128.73 59.09,128.86 59.02,129.00 58.91,129.12 58.80,129.23 58.67,129.32 58.53,129.40 58.38,129.45 58.23,129.51 58.08,129.52 57.92,129.53 57.70,131.32 57.49,133.11 54.88,133.03 52.27,132.96 48.76,132.70 45.24,132.44 40.62,132.17 35.99,131.90 30.36,131.94 24.74,131.98 18.69,132.51 12.64,133.04 6.63,133.75 0.61,134.47 -4.96,134.37 -10.55,134.26 -14.22,132.36 -17.90,130.46 -19.47,126.97 -21.05,123.48 -20.90,119.10 -20.74,114.71 -19.62,108.49 -18.50,102.28 -16.50,94.07 -14.50,85.86 -11.84,75.87 -9.18,65.88 -6.83,55.92 -4.47,45.96 -2.88,37.35 -1.29,28.73 -0.74,21.87 -0.18,15.00 -0.40,10.49 -0.63,5.98 -1.21,3.39 -1.80,0.80 -1.87,0.57 -1.94,0.34 -1.95,0.10 -1.96,-0.12 -1.92,-0.36 -1.88,-0.59 -1.78,-0.81 -1.68,-1.02 -1.53,-1.21 -1.38,-1.40 -1.19,-1.54 -1.01,-1.69 -0.79,-1.79 -0.57,-1.88 -0.34,-1.92 -0.10,-1.97 0.12,-1.95 0.36,-1.93 0.59,-1.86 0.81,-1.79 1.02,-1.67 1.22,-1.54 1.39,-1.37 1.55,-1.20 1.68,-1.00 1.80,-0.80 1.80,-0.80 L 1.80,-0.80 Z"></path></g><g transform="translate(111.50230407714844 222.46322631835938) rotate(0 3.9531097412109375 -15.928756713867188)" stroke="none"><path fill="#ffffff" d="M -1.95,-1.71 Q -1.95,-1.71 -0.85,-3.40 0.23,-5.08 2.04,-6.89 3.84,-8.71 5.61,-10.43 7.39,-12.15 8.68,-13.57 9.98,-14.99 10.47,-16.00 10.96,-17.00 9.37,-18.86 7.78,-20.71 5.96,-21.91 4.14,-23.11 2.05,-24.31 -0.03,-25.50 -1.75,-26.44 -3.47,-27.39 -5.11,-28.86 -6.76,-30.34 -6.96,-30.42 -7.15,-30.50 -7.31,-30.65 -7.47,-30.79 -7.58,-30.97 -7.68,-31.16 -7.72,-31.36 -7.76,-31.57 -7.74,-31.78 -7.71,-31.99 -7.61,-32.18 -7.52,-32.38 -7.37,-32.53 -7.22,-32.68 -7.03,-32.77 -6.84,-32.87 -6.63,-32.90 -6.42,-32.93 -6.21,-32.89 -6.00,-32.85 -5.82,-32.74 -5.63,-32.64 -5.49,-32.48 -5.35,-32.33 -5.26,-32.13 -5.18,-31.94 -5.16,-31.72 -5.14,-31.51 -5.19,-31.31 -5.24,-31.10 -5.36,-30.92 -5.47,-30.74 -5.63,-30.61 -5.80,-30.47 -6.00,-30.40 -6.20,-30.33 -6.41,-30.32 -6.62,-30.31 -6.83,-30.37 -7.03,-30.43 -7.20,-30.56 -7.38,-30.68 -7.50,-30.85 -7.63,-31.03 -7.69,-31.23 -7.75,-31.43 -7.75,-31.64 -7.74,-31.86 -7.67,-32.06 -7.60,-32.26 -7.46,-32.42 -7.33,-32.59 -7.15,-32.70 -6.98,-32.82 -6.77,-32.87 -6.56,-32.92 -6.35,-32.91 -6.14,-32.89 -6.14,-32.89 -6.14,-32.89 -3.35,-33.28 -0.56,-33.68 1.54,-32.83 3.65,-31.99 6.05,-30.63 8.45,-29.27 11.01,-27.40 13.57,-25.53 15.39,-22.85 17.21,-20.17 17.21,-17.26 17.21,-14.35 16.01,-12.37 14.81,-10.40 13.33,-8.95 11.85,-7.49 10.09,-5.83 8.34,-4.17 6.67,-2.54 5.00,-0.91 3.48,0.39 1.95,1.71 1.72,1.92 1.49,2.13 1.21,2.27 0.93,2.42 0.63,2.50 0.33,2.58 0.01,2.58 -0.29,2.58 -0.60,2.51 -0.90,2.43 -1.18,2.29 -1.46,2.15 -1.69,1.94 -1.93,1.73 -2.11,1.48 -2.29,1.22 -2.40,0.93 -2.52,0.63 -2.56,0.32 -2.60,0.01 -2.56,-0.29 -2.53,-0.60 -2.42,-0.89 -2.31,-1.19 -2.13,-1.45 -1.95,-1.71 -1.95,-1.71 L -1.95,-1.71 Z"></path></g></svg>